<?xml version="1.0" encoding="iso-8859-1"?>
<!-- Generator: Adobe Illustrator 21.0.2, SVG Export Plug-In . SVG Version: 6.00 Build 0)  -->
<svg xmlns:xlink="http://www.w3.org/1999/xlink" version="1.1" id="Layer_1" xmlns="http://www.w3.org/2000/svg" x="0px" y="0px"
	 viewBox="-49 141 178 178" style="enable-background:new -49 141 178 178;" xml:space="preserve">
<g>
	<path style="fill:#FBCB99;" d="M1.749,241.643v-13.073c0-0.627-0.228-1.201-0.605-1.646l0.159-0.089l-0.681-0.381
		c-0.316-0.213-0.683-0.356-1.078-0.41c-0.014-0.002-0.028-0.005-0.043-0.007c-0.1-0.012-0.201-0.02-0.304-0.02h-0.291
		c-1.407,0-2.552,1.145-2.552,2.552v5.583c0,0.099-0.009,0.197-0.022,0.294c-0.003,0.024-0.007,0.048-0.011,0.071
		c-0.014,0.087-0.033,0.173-0.058,0.257c-0.002,0.009-0.004,0.017-0.007,0.026c-0.028,0.092-0.063,0.18-0.102,0.267
		c-0.009,0.021-0.02,0.041-0.03,0.062c-0.035,0.072-0.074,0.141-0.117,0.209c-0.009,0.015-0.018,0.031-0.027,0.045
		c-0.05,0.076-0.106,0.147-0.165,0.217c-0.017,0.02-0.036,0.039-0.054,0.059c-0.051,0.055-0.105,0.108-0.162,0.159
		c-0.015,0.013-0.029,0.027-0.045,0.04c-0.071,0.06-0.147,0.115-0.227,0.166c-0.017,0.011-0.035,0.022-0.053,0.032
		c-0.08,0.048-0.162,0.093-0.249,0.131c-0.007,0.003-0.013,0.007-0.02,0.009l-0.024,0.01c-0.264,0.11-0.553,0.172-0.857,0.172
		c-1.228,0-2.227-0.999-2.227-2.227v-7.508c0-0.629-0.23-1.205-0.609-1.651l0.161-0.09l-0.695-0.385
		c-0.313-0.208-0.675-0.347-1.064-0.4c-0.014-0.002-0.027-0.005-0.041-0.007c-0.099-0.012-0.2-0.02-0.302-0.02h-0.291
		c-0.969,0-1.841,0.535-2.277,1.397l-0.06,0.118v7.179c0,0.099-0.009,0.197-0.022,0.294c-0.003,0.023-0.007,0.047-0.011,0.07
		c-0.014,0.088-0.033,0.174-0.058,0.259c-0.002,0.008-0.004,0.016-0.006,0.024c-0.028,0.092-0.063,0.181-0.102,0.269
		c-0.009,0.02-0.019,0.039-0.029,0.059c-0.036,0.073-0.075,0.144-0.118,0.213c-0.009,0.014-0.016,0.028-0.025,0.042
		c-0.051,0.076-0.107,0.149-0.167,0.219c-0.017,0.019-0.035,0.038-0.052,0.056c-0.052,0.056-0.106,0.11-0.164,0.161
		c-0.015,0.013-0.029,0.027-0.044,0.04c-0.071,0.06-0.147,0.115-0.226,0.166c-0.018,0.012-0.037,0.023-0.056,0.034
		c-0.076,0.046-0.156,0.089-0.239,0.126c-0.012,0.006-0.023,0.012-0.036,0.017l-0.011,0.005c-0.265,0.112-0.556,0.174-0.861,0.174
		c-1.228,0-2.227-0.999-2.227-2.227v-7.958c0-0.629-0.23-1.206-0.609-1.651l0.158-0.089l-0.683-0.38
		c-0.315-0.212-0.681-0.353-1.075-0.406c-0.013-0.002-0.027-0.005-0.04-0.007c-0.1-0.012-0.201-0.02-0.304-0.02h-0.291
		c-0.939,0-1.799,0.515-2.243,1.344l-0.066,0.123v9.044c0,0.099-0.009,0.197-0.022,0.294c-0.003,0.023-0.007,0.047-0.011,0.07
		c-0.014,0.088-0.033,0.174-0.058,0.259c-0.002,0.008-0.004,0.016-0.006,0.024c-0.028,0.092-0.063,0.181-0.102,0.269
		c-0.009,0.02-0.019,0.039-0.029,0.059c-0.036,0.073-0.075,0.144-0.118,0.213c-0.009,0.014-0.016,0.028-0.025,0.042
		c-0.051,0.076-0.107,0.149-0.167,0.219c-0.017,0.019-0.035,0.038-0.052,0.056c-0.052,0.056-0.106,0.11-0.164,0.161
		c-0.015,0.013-0.029,0.027-0.044,0.04c-0.071,0.06-0.147,0.115-0.226,0.166c-0.018,0.012-0.037,0.023-0.056,0.034
		c-0.076,0.046-0.156,0.089-0.239,0.126c-0.012,0.006-0.023,0.012-0.036,0.017l-0.011,0.005c-0.265,0.112-0.556,0.174-0.861,0.174
		c-1.228,0-2.227-0.999-2.227-2.227v-10.747c0-0.627-0.228-1.201-0.605-1.646l0.159-0.089l-0.681-0.381
		c-0.316-0.213-0.683-0.356-1.078-0.41c-0.014-0.002-0.028-0.005-0.043-0.007c-0.1-0.012-0.201-0.02-0.304-0.02h-0.294
		c-1.407,0-2.552,1.145-2.552,2.552v16.685c0,0.099-0.009,0.197-0.022,0.294c-0.003,0.024-0.007,0.048-0.011,0.071
		c-0.014,0.087-0.033,0.173-0.058,0.257c-0.002,0.008-0.004,0.017-0.007,0.026c-0.028,0.092-0.063,0.18-0.102,0.267
		c-0.009,0.021-0.02,0.041-0.03,0.062c-0.035,0.071-0.074,0.141-0.116,0.208c-0.01,0.015-0.018,0.031-0.028,0.046
		c-0.05,0.075-0.105,0.147-0.164,0.216c-0.018,0.021-0.036,0.04-0.055,0.061c-0.05,0.055-0.103,0.107-0.159,0.156
		c-0.016,0.014-0.031,0.029-0.048,0.043c-0.071,0.059-0.146,0.114-0.224,0.164c-0.019,0.012-0.039,0.023-0.058,0.035
		c-0.076,0.046-0.155,0.088-0.238,0.125c-0.012,0.006-0.023,0.012-0.036,0.017l-0.011,0.005c-0.265,0.112-0.556,0.174-0.861,0.174
		c-1.228,0-2.227-0.999-2.227-2.227v-3.428l2.61-0.504l-3.426-0.443c-0.007-0.001-0.013-0.001-0.021-0.002
		c-0.197-0.025-0.387-0.045-0.572-0.059c-0.027-0.002-0.054-0.004-0.081-0.006c-0.17-0.012-0.335-0.02-0.494-0.022
		c-0.04,0-0.079,0-0.119,0c-0.144,0-0.284,0.003-0.418,0.011c-0.051,0.003-0.099,0.008-0.148,0.012
		c-0.119,0.01-0.237,0.021-0.348,0.037c-0.059,0.009-0.114,0.021-0.171,0.032c-0.096,0.018-0.193,0.035-0.282,0.058
		c-0.066,0.017-0.127,0.039-0.189,0.058c-0.073,0.023-0.149,0.045-0.218,0.072c-0.074,0.029-0.141,0.065-0.209,0.099
		c-0.05,0.025-0.104,0.046-0.15,0.073c-0.112,0.065-0.215,0.135-0.308,0.213c-1.955,1.635-1.626,7.051-1.336,11.828
		c0.405,6.686,7.475,13.331,10.165,15.327c0.563,0.418,0.9,1.086,0.9,1.788v6.681h3.34h24.475v-9.372c0-0.657,0.287-1.276,0.788-1.7
		c5.206-4.407,5.492-14.216,5.164-17.623C1.753,241.787,1.749,241.715,1.749,241.643z"/>
	<path style="fill:#FBCB99;" d="M70.237,163.323l-0.752-0.385c-0.214-0.127-0.45-0.225-0.704-0.285l-0.285-0.068
		c-0.193-0.046-0.392-0.07-0.59-0.07c-1.187,0-2.207,0.807-2.487,1.98l-2.44,7.794c-0.032,0.1-0.072,0.194-0.116,0.287
		c-0.016,0.033-0.032,0.066-0.05,0.098c-0.028,0.053-0.06,0.104-0.093,0.154c-0.236,0.361-0.575,0.653-0.984,0.83l-0.186,0.081
		c-0.22,0.072-0.454,0.111-0.696,0.111c-0.225,0-0.45-0.035-0.667-0.103c-0.568-0.178-1.032-0.566-1.307-1.093
		c-0.275-0.527-0.329-1.13-0.151-1.698l2.373-7.563l0.432-1.816c0.202-0.848-0.049-1.7-0.593-2.303l0.161-0.098l-0.879-0.454
		c-0.004-0.002-0.008-0.003-0.011-0.005c-0.084-0.043-0.171-0.082-0.26-0.116c-0.008-0.003-0.016-0.007-0.024-0.01
		c-0.093-0.034-0.188-0.064-0.286-0.088l-0.281-0.066c-0.986-0.237-2.047,0.158-2.644,0.974l-0.057,0.078l-2.727,9.211
		c-0.031,0.104-0.071,0.203-0.116,0.3c-0.012,0.026-0.024,0.052-0.038,0.077c-0.042,0.083-0.089,0.163-0.141,0.239
		c-0.012,0.018-0.024,0.036-0.037,0.053c-0.052,0.071-0.109,0.138-0.169,0.203c-0.032,0.034-0.065,0.067-0.098,0.099
		c-0.035,0.033-0.071,0.064-0.108,0.095c-0.161,0.134-0.342,0.249-0.54,0.336c-0.275,0.122-0.575,0.195-0.887,0.195
		c-0.213,0-0.426-0.031-0.633-0.092c-0.57-0.169-1.041-0.549-1.325-1.073c-0.284-0.523-0.347-1.124-0.178-1.695l2.916-9.849
		l0.009-0.037c0.146-0.655,0.034-1.328-0.316-1.894c-0.084-0.135-0.179-0.26-0.283-0.375l0.158-0.096l-0.73-0.375
		c-0.223-0.134-0.467-0.236-0.728-0.298l-0.285-0.068c-0.928-0.22-1.923,0.111-2.537,0.841l-0.076,0.09l-3.201,11.092
		c-0.03,0.104-0.07,0.204-0.115,0.301c-0.013,0.027-0.025,0.054-0.039,0.081c-0.04,0.08-0.085,0.157-0.134,0.23
		c-0.017,0.024-0.033,0.049-0.051,0.073c-0.049,0.067-0.101,0.13-0.157,0.19c-0.035,0.038-0.071,0.075-0.109,0.11
		c-0.029,0.027-0.059,0.053-0.089,0.079c-0.167,0.142-0.355,0.262-0.563,0.353l-0.14,0.061c-0.235,0.084-0.484,0.132-0.742,0.132
		c-0.208,0-0.416-0.03-0.619-0.088c-1.18-0.34-1.862-1.577-1.522-2.757l3.286-11.388l0.282-1.19c0.158-0.664,0.048-1.349-0.31-1.93
		c-0.078-0.126-0.167-0.242-0.263-0.351l0.181-0.101l-0.78-0.398c-0.222-0.132-0.464-0.233-0.722-0.294l-0.278-0.066
		c-0.661-0.155-1.358-0.045-1.932,0.31c-0.58,0.357-0.986,0.92-1.145,1.587l-4.984,18.521c-0.029,0.109-0.069,0.212-0.113,0.313
		c-0.01,0.024-0.022,0.048-0.033,0.072c-0.046,0.096-0.098,0.19-0.157,0.278c-0.001,0.002-0.002,0.004-0.003,0.005
		c-0.061,0.091-0.131,0.174-0.204,0.255c-0.017,0.019-0.035,0.037-0.053,0.055c-0.062,0.063-0.127,0.121-0.196,0.177
		c-0.018,0.014-0.035,0.03-0.053,0.044c-0.079,0.059-0.163,0.112-0.249,0.161c-0.037,0.021-0.075,0.039-0.113,0.057
		c-0.298,0.147-0.629,0.232-0.977,0.232c-0.194,0-0.389-0.026-0.579-0.077c-0.692-0.186-1.255-0.701-1.507-1.376l-0.084-0.225
		l-2.825-1.193l0,0l-2.993-1.263l-0.185,0.582c-0.681,2.145-1.156,4.866-1.574,7.266c-0.13,0.741-0.179,1.494-0.163,2.251
		c0.137,6.555,5.207,13.355,6.306,14.752c0.127,0.161,0.2,0.251,0.208,0.259c0.336,0.402,0.521,0.91,0.521,1.43l0.01,13.897h3.34
		h24.181l0.032-9.066c0.003-0.84,0.471-1.598,1.22-1.978c7.265-3.684,9.078-15.833,9.096-15.957
		c0.013-0.095,0.033-0.193,0.059-0.287l4.124-14.916c0.18-0.83-0.076-1.662-0.611-2.253L70.237,163.323z"/>
	<path style="fill:#FBCB99;" d="M123.047,226.292v-13.073c0-0.627-0.228-1.2-0.604-1.645l0.159-0.089l-0.682-0.382
		c-0.316-0.213-0.683-0.355-1.077-0.409c-0.014-0.002-0.028-0.005-0.042-0.007c-0.101-0.012-0.202-0.02-0.305-0.02h-0.291
		c-1.408,0-2.553,1.145-2.553,2.552v5.583c0,0.099-0.009,0.197-0.022,0.294c-0.003,0.024-0.007,0.048-0.011,0.071
		c-0.014,0.087-0.033,0.173-0.058,0.257c-0.002,0.009-0.004,0.017-0.007,0.026c-0.028,0.092-0.063,0.18-0.102,0.267
		c-0.009,0.021-0.02,0.041-0.03,0.062c-0.035,0.072-0.074,0.141-0.116,0.209c-0.009,0.015-0.018,0.031-0.027,0.045
		c-0.05,0.076-0.106,0.148-0.165,0.217c-0.017,0.02-0.036,0.039-0.054,0.059c-0.051,0.056-0.105,0.108-0.162,0.159
		c-0.015,0.013-0.029,0.027-0.045,0.04c-0.071,0.06-0.147,0.115-0.227,0.166c-0.017,0.011-0.035,0.022-0.053,0.032
		c-0.08,0.048-0.162,0.093-0.249,0.131c-0.007,0.003-0.013,0.007-0.02,0.009l-0.024,0.01c-0.264,0.11-0.553,0.172-0.857,0.172
		c-1.228,0-2.227-0.999-2.227-2.227v-7.508c0-0.629-0.23-1.205-0.609-1.65l0.16-0.089l-0.681-0.379
		c-0.315-0.212-0.682-0.354-1.076-0.408c-0.014-0.002-0.027-0.005-0.041-0.007c-0.1-0.012-0.2-0.02-0.303-0.02h-0.291
		c-0.969,0-1.842,0.535-2.277,1.397l-0.06,0.118v7.179c0,0.099-0.009,0.197-0.022,0.294c-0.003,0.024-0.007,0.048-0.011,0.071
		c-0.014,0.087-0.033,0.173-0.058,0.257c-0.002,0.009-0.004,0.017-0.007,0.026c-0.028,0.092-0.063,0.18-0.102,0.267
		c-0.009,0.021-0.02,0.041-0.03,0.062c-0.035,0.072-0.074,0.141-0.117,0.209c-0.009,0.015-0.018,0.031-0.027,0.045
		c-0.05,0.076-0.106,0.148-0.165,0.217c-0.017,0.02-0.036,0.039-0.054,0.059c-0.051,0.055-0.105,0.108-0.161,0.159
		c-0.015,0.013-0.029,0.027-0.045,0.04c-0.071,0.06-0.148,0.115-0.227,0.166c-0.017,0.011-0.035,0.022-0.053,0.032
		c-0.08,0.048-0.162,0.093-0.249,0.131c-0.007,0.003-0.013,0.007-0.02,0.009l-0.024,0.01c-0.264,0.11-0.553,0.172-0.857,0.172
		c-1.228,0-2.227-0.999-2.227-2.227v-7.958c0-0.63-0.23-1.206-0.61-1.652l0.158-0.089l-0.683-0.38
		c-0.315-0.211-0.68-0.351-1.072-0.405c-0.014-0.002-0.027-0.005-0.042-0.007c-0.099-0.012-0.2-0.02-0.303-0.02h-0.291
		c-0.939,0-1.799,0.515-2.244,1.343l-0.066,0.124v9.044c0,0.099-0.009,0.197-0.022,0.294c-0.003,0.024-0.007,0.048-0.011,0.071
		c-0.014,0.087-0.033,0.173-0.058,0.257c-0.002,0.009-0.004,0.017-0.007,0.026c-0.028,0.092-0.063,0.18-0.102,0.267
		c-0.009,0.021-0.02,0.041-0.03,0.062c-0.035,0.071-0.074,0.141-0.116,0.208c-0.01,0.015-0.018,0.031-0.028,0.046
		c-0.05,0.075-0.105,0.147-0.164,0.216c-0.018,0.021-0.036,0.04-0.055,0.06c-0.05,0.054-0.103,0.107-0.159,0.156
		c-0.016,0.014-0.031,0.029-0.048,0.043c-0.071,0.059-0.146,0.114-0.224,0.164c-0.019,0.012-0.039,0.024-0.058,0.035
		c-0.076,0.046-0.155,0.088-0.238,0.125c-0.012,0.006-0.023,0.012-0.036,0.017l-0.011,0.005c-0.265,0.112-0.556,0.174-0.861,0.174
		c-1.228,0-2.227-0.999-2.227-2.227v-10.746c0-0.627-0.228-1.2-0.604-1.646l0.157-0.088l-0.676-0.379
		c-0.317-0.215-0.685-0.358-1.082-0.412c-0.014-0.002-0.029-0.005-0.043-0.007c-0.101-0.012-0.202-0.02-0.305-0.02h-0.291
		c-1.407,0-2.552,1.145-2.552,2.552v16.685c0,0.099-0.009,0.197-0.022,0.294c-0.003,0.024-0.007,0.048-0.011,0.071
		c-0.014,0.087-0.033,0.173-0.058,0.257c-0.002,0.009-0.004,0.017-0.007,0.026c-0.028,0.092-0.063,0.18-0.102,0.267
		c-0.009,0.021-0.02,0.041-0.03,0.062c-0.035,0.071-0.074,0.141-0.116,0.208c-0.01,0.015-0.018,0.031-0.028,0.046
		c-0.05,0.075-0.105,0.147-0.164,0.216c-0.018,0.021-0.036,0.04-0.055,0.061c-0.05,0.054-0.103,0.107-0.159,0.156
		c-0.016,0.014-0.031,0.029-0.048,0.043c-0.071,0.059-0.146,0.114-0.224,0.164c-0.019,0.012-0.039,0.024-0.058,0.035
		c-0.076,0.046-0.155,0.088-0.238,0.125c-0.012,0.006-0.023,0.012-0.036,0.017l-0.011,0.005c-0.265,0.112-0.556,0.174-0.861,0.174
		c-1.228,0-2.227-0.999-2.227-2.227v-3.429l2.607-0.504l-3.425-0.443c-0.009-0.001-0.017-0.001-0.025-0.003
		c-0.196-0.025-0.386-0.045-0.569-0.058c-0.026-0.002-0.051-0.004-0.076-0.005c-0.173-0.012-0.34-0.02-0.501-0.022
		c-0.037-0.001-0.072,0-0.108,0c-0.147,0-0.291,0.003-0.428,0.011c-0.048,0.003-0.093,0.007-0.139,0.012
		c-0.122,0.01-0.242,0.022-0.355,0.038c-0.058,0.009-0.112,0.021-0.169,0.031c-0.097,0.018-0.193,0.035-0.284,0.058
		c-0.068,0.017-0.13,0.039-0.194,0.06c-0.071,0.023-0.146,0.044-0.212,0.07c-0.079,0.031-0.15,0.068-0.223,0.105
		c-0.045,0.023-0.094,0.042-0.137,0.067c-0.112,0.065-0.215,0.135-0.309,0.214c-1.955,1.635-1.626,7.051-1.336,11.828
		c0.487,8.035,10.071,15.257,10.167,15.328c0.563,0.42,0.898,1.088,0.898,1.787v6.681h3.34h24.475v-9.372
		c0-0.657,0.287-1.276,0.788-1.7c5.206-4.407,5.492-14.216,5.164-17.622C123.05,226.435,123.047,226.363,123.047,226.292z"/>
</g>
<g>
	<path style="fill:#EDBA89;" d="M-29.938,262.084c-2.69-1.996-9.76-8.642-10.165-15.327c-0.29-4.778-0.618-10.193,1.336-11.828
		c0.094-0.078,0.197-0.149,0.308-0.213c0.046-0.027,0.101-0.049,0.15-0.073c0.068-0.034,0.135-0.07,0.209-0.099
		c0.069-0.027,0.145-0.049,0.218-0.072c0.063-0.02,0.123-0.041,0.189-0.058c0.021-0.006,0.044-0.009,0.066-0.014l-0.379-0.049
		c-0.007-0.001-0.013-0.001-0.021-0.002c-0.197-0.025-0.387-0.045-0.572-0.059c-0.027-0.002-0.054-0.004-0.081-0.006
		c-0.17-0.012-0.335-0.02-0.494-0.022c-0.04,0-0.079,0-0.119,0c-0.144,0-0.284,0.003-0.418,0.011
		c-0.051,0.003-0.099,0.008-0.148,0.012c-0.119,0.01-0.237,0.021-0.348,0.037c-0.059,0.009-0.114,0.021-0.171,0.032
		c-0.096,0.018-0.193,0.035-0.282,0.058c-0.066,0.017-0.127,0.039-0.189,0.058c-0.073,0.023-0.149,0.045-0.218,0.072
		c-0.074,0.029-0.141,0.065-0.209,0.099c-0.05,0.024-0.104,0.046-0.15,0.073c-0.112,0.065-0.215,0.135-0.308,0.213
		c-1.955,1.635-1.626,7.051-1.336,11.828c0.405,6.686,7.475,13.331,10.165,15.327c0.563,0.418,0.9,1.086,0.9,1.788v6.681h2.969
		v-6.681C-29.039,263.17-29.375,262.502-29.938,262.084z"/>
	<path style="fill:#EDBA89;" d="M-2.904,236.38c0.303,0,0.593-0.062,0.857-0.172l0.024-0.01c0.007-0.003,0.013-0.007,0.02-0.009
		c0.086-0.039,0.169-0.083,0.249-0.131c0.018-0.01,0.036-0.021,0.053-0.032c0.079-0.051,0.156-0.106,0.227-0.166
		c0.016-0.013,0.03-0.027,0.045-0.04c0.057-0.05,0.111-0.103,0.162-0.159c0.018-0.02,0.037-0.039,0.054-0.059
		c0.059-0.069,0.115-0.141,0.165-0.217c0.01-0.014,0.018-0.03,0.027-0.045c0.042-0.068,0.081-0.137,0.116-0.209
		c0.01-0.02,0.02-0.04,0.03-0.062c0.039-0.086,0.074-0.175,0.102-0.267c0.003-0.008,0.004-0.017,0.007-0.026
		c0.024-0.084,0.043-0.17,0.058-0.257c0.004-0.023,0.008-0.047,0.011-0.071c0.013-0.096,0.022-0.194,0.022-0.294v-5.583
		c0-0.916,0.486-1.718,1.213-2.168c-0.296-0.183-0.631-0.308-0.991-0.358c-0.014-0.002-0.028-0.005-0.043-0.007
		c-0.1-0.012-0.201-0.02-0.304-0.02h-0.291c-1.407,0-2.552,1.145-2.552,2.552v5.583c0,0.099-0.009,0.197-0.022,0.294
		c-0.003,0.024-0.007,0.048-0.011,0.071c-0.014,0.087-0.033,0.173-0.058,0.257c-0.002,0.009-0.004,0.017-0.007,0.026
		c-0.028,0.092-0.063,0.18-0.102,0.267c-0.009,0.021-0.02,0.041-0.03,0.062c-0.035,0.072-0.074,0.141-0.117,0.209
		c-0.009,0.015-0.018,0.031-0.027,0.045c-0.05,0.076-0.106,0.147-0.165,0.217c-0.017,0.02-0.036,0.039-0.054,0.059
		c-0.048,0.052-0.098,0.101-0.151,0.148C-3.995,236.163-3.475,236.38-2.904,236.38z"/>
	<path style="fill:#EDBA89;" d="M-12.538,235.014c0.305,0,0.596-0.062,0.861-0.174l0.011-0.005c0.012-0.005,0.024-0.012,0.036-0.017
		c0.083-0.037,0.163-0.08,0.239-0.126c0.019-0.011,0.037-0.022,0.056-0.034c0.079-0.051,0.155-0.106,0.226-0.166
		c0.015-0.013,0.029-0.027,0.044-0.04c0.058-0.051,0.112-0.105,0.164-0.161c0.017-0.019,0.035-0.037,0.052-0.056
		c0.06-0.07,0.116-0.143,0.167-0.219c0.009-0.013,0.017-0.028,0.025-0.042c0.043-0.069,0.083-0.14,0.118-0.213
		c0.009-0.02,0.02-0.039,0.029-0.059c0.039-0.087,0.074-0.177,0.102-0.269c0.002-0.007,0.004-0.016,0.006-0.024
		c0.025-0.085,0.043-0.171,0.058-0.259c0.004-0.023,0.008-0.047,0.011-0.07c0.013-0.097,0.022-0.195,0.022-0.294v-7.179l0.06-0.118
		c0.216-0.428,0.54-0.774,0.93-1.015c-0.295-0.181-0.629-0.306-0.988-0.355c-0.014-0.002-0.027-0.005-0.041-0.007
		c-0.099-0.012-0.2-0.02-0.302-0.02h-0.291c-0.969,0-1.841,0.535-2.277,1.397l-0.06,0.118v7.179c0,0.099-0.009,0.197-0.022,0.294
		c-0.003,0.023-0.007,0.047-0.011,0.07c-0.014,0.088-0.033,0.174-0.058,0.259c-0.002,0.008-0.004,0.016-0.006,0.024
		c-0.028,0.092-0.063,0.181-0.102,0.269c-0.009,0.02-0.019,0.039-0.029,0.059c-0.036,0.073-0.075,0.144-0.118,0.213
		c-0.009,0.014-0.016,0.028-0.025,0.042c-0.051,0.076-0.107,0.149-0.167,0.219c-0.017,0.019-0.035,0.038-0.052,0.056
		c-0.048,0.053-0.099,0.102-0.153,0.15C-13.628,234.796-13.109,235.014-12.538,235.014z"/>
	<path style="fill:#EDBA89;" d="M-22.144,235.014c0.305,0,0.596-0.062,0.861-0.174l0.011-0.005c0.012-0.005,0.023-0.012,0.036-0.017
		c0.083-0.037,0.163-0.08,0.239-0.126c0.019-0.011,0.037-0.022,0.056-0.034c0.079-0.051,0.155-0.106,0.226-0.166
		c0.015-0.013,0.029-0.027,0.044-0.04c0.058-0.051,0.112-0.105,0.164-0.161c0.017-0.019,0.035-0.037,0.052-0.056
		c0.06-0.07,0.116-0.143,0.167-0.219c0.009-0.013,0.017-0.028,0.025-0.042c0.043-0.069,0.083-0.14,0.118-0.213
		c0.009-0.02,0.02-0.039,0.029-0.059c0.039-0.087,0.074-0.177,0.102-0.269c0.002-0.007,0.004-0.016,0.006-0.024
		c0.025-0.085,0.043-0.171,0.058-0.259c0.004-0.023,0.008-0.047,0.011-0.07c0.013-0.097,0.022-0.195,0.022-0.294v-9.044l0.066-0.123
		c0.216-0.402,0.53-0.728,0.903-0.96c-0.297-0.183-0.633-0.309-0.994-0.358c-0.013-0.002-0.027-0.005-0.04-0.007
		c-0.1-0.012-0.201-0.02-0.304-0.02h-0.291c-0.939,0-1.799,0.515-2.243,1.344l-0.066,0.123v9.044c0,0.099-0.009,0.197-0.022,0.294
		c-0.003,0.023-0.007,0.047-0.011,0.07c-0.014,0.088-0.033,0.174-0.058,0.259c-0.002,0.008-0.004,0.016-0.006,0.024
		c-0.028,0.092-0.063,0.181-0.102,0.269c-0.009,0.02-0.019,0.039-0.029,0.059c-0.036,0.073-0.075,0.144-0.118,0.213
		c-0.009,0.014-0.016,0.028-0.025,0.042c-0.051,0.076-0.107,0.149-0.167,0.219c-0.017,0.019-0.035,0.038-0.052,0.056
		c-0.048,0.053-0.099,0.102-0.153,0.15C-23.235,234.796-22.715,235.014-22.144,235.014z"/>
	<path style="fill:#EDBA89;" d="M-31.61,234.793l-1.126,0.217v3.715c0,0.099-0.009,0.197-0.022,0.294
		c-0.003,0.024-0.007,0.048-0.011,0.071c-0.014,0.087-0.033,0.173-0.058,0.257c-0.002,0.008-0.004,0.017-0.007,0.026
		c-0.028,0.092-0.063,0.18-0.102,0.267c-0.009,0.021-0.02,0.041-0.03,0.062c-0.035,0.071-0.074,0.141-0.116,0.208
		c-0.01,0.015-0.018,0.031-0.028,0.046c-0.05,0.075-0.105,0.147-0.164,0.216c-0.018,0.021-0.036,0.04-0.055,0.061
		c-0.047,0.052-0.098,0.101-0.15,0.148c0.394,0.354,0.914,0.572,1.485,0.572c0.305,0,0.596-0.062,0.861-0.174l0.011-0.005
		c0.012-0.005,0.023-0.012,0.036-0.017c0.083-0.037,0.161-0.079,0.238-0.125c0.02-0.012,0.039-0.023,0.058-0.035
		c0.078-0.05,0.153-0.105,0.224-0.164c0.016-0.014,0.032-0.029,0.048-0.043c0.056-0.05,0.109-0.102,0.159-0.156
		c0.019-0.02,0.037-0.04,0.055-0.061c0.059-0.069,0.115-0.141,0.164-0.216c0.01-0.015,0.019-0.031,0.028-0.046
		c0.042-0.068,0.081-0.137,0.116-0.208c0.01-0.021,0.02-0.041,0.03-0.062c0.039-0.086,0.074-0.175,0.102-0.267
		c0.003-0.008,0.004-0.017,0.007-0.026c0.024-0.084,0.043-0.17,0.058-0.257c0.004-0.024,0.008-0.047,0.011-0.071
		c0.013-0.096,0.022-0.194,0.022-0.294V222.04c0-0.916,0.486-1.718,1.213-2.168c-0.296-0.183-0.631-0.308-0.991-0.358
		c-0.014-0.002-0.028-0.005-0.043-0.007c-0.1-0.012-0.201-0.02-0.304-0.02h-0.292c-1.407,0-2.552,1.145-2.552,2.552v12.606
		L-31.61,234.793z"/>
	<path style="fill:#EDBA89;" d="M62.863,172.577c-0.016,0.033-0.032,0.066-0.05,0.098c-0.028,0.053-0.06,0.104-0.093,0.154
		c-0.107,0.164-0.238,0.312-0.386,0.443c0.235,0.212,0.511,0.379,0.822,0.476c0.217,0.069,0.442,0.103,0.667,0.103
		c0.242,0,0.475-0.039,0.696-0.111l0.186-0.081c0.409-0.178,0.748-0.47,0.984-0.83c0.032-0.05,0.065-0.101,0.093-0.154
		c0.017-0.032,0.034-0.065,0.05-0.098c0.044-0.093,0.085-0.187,0.116-0.287l2.44-7.794c0.159-0.667,0.563-1.209,1.095-1.558
		c-0.214-0.127-0.45-0.224-0.703-0.285l-0.285-0.068c-0.193-0.046-0.392-0.07-0.59-0.07c-1.187,0-2.207,0.807-2.487,1.98
		l-2.44,7.794C62.948,172.39,62.907,172.484,62.863,172.577z"/>
	<path style="fill:#EDBA89;" d="M53.816,169.001c-0.012,0.026-0.025,0.052-0.038,0.077c-0.042,0.083-0.089,0.163-0.141,0.239
		c-0.012,0.018-0.024,0.036-0.037,0.053c-0.052,0.071-0.109,0.138-0.169,0.203c-0.032,0.034-0.065,0.067-0.098,0.099
		c-0.017,0.016-0.036,0.031-0.053,0.047c0.243,0.22,0.53,0.39,0.854,0.487c0.207,0.061,0.421,0.092,0.633,0.092
		c0.313,0,0.612-0.073,0.887-0.195c0.198-0.086,0.379-0.202,0.54-0.336c0.037-0.031,0.073-0.062,0.108-0.095
		c0.034-0.032,0.066-0.065,0.098-0.099c0.059-0.065,0.117-0.131,0.169-0.203c0.013-0.017,0.024-0.035,0.037-0.053
		c0.052-0.076,0.099-0.156,0.141-0.239c0.013-0.025,0.026-0.051,0.038-0.077c0.045-0.096,0.085-0.195,0.116-0.3l2.727-9.211
		l0.057-0.078c0.183-0.251,0.414-0.456,0.67-0.621l-0.132-0.069c-0.004-0.002-0.008-0.003-0.011-0.005
		c-0.084-0.043-0.171-0.082-0.26-0.116c-0.008-0.003-0.016-0.007-0.024-0.01c-0.093-0.034-0.188-0.064-0.286-0.088l-0.281-0.066
		c-0.986-0.237-2.047,0.158-2.644,0.974l-0.057,0.078l-2.727,9.211C53.902,168.805,53.861,168.904,53.816,169.001z"/>
	<path style="fill:#EDBA89;" d="M44.475,166.768c-0.013,0.027-0.025,0.054-0.039,0.081c-0.04,0.08-0.085,0.157-0.134,0.23
		c-0.017,0.024-0.033,0.049-0.051,0.073c-0.049,0.067-0.101,0.13-0.157,0.19c-0.035,0.038-0.071,0.075-0.109,0.11
		c-0.018,0.017-0.037,0.033-0.056,0.049c0.243,0.22,0.536,0.391,0.872,0.487c0.203,0.058,0.411,0.088,0.619,0.088
		c0.258,0,0.508-0.048,0.742-0.132l0.14-0.061c0.208-0.091,0.395-0.211,0.563-0.353c0.03-0.026,0.06-0.052,0.089-0.079
		c0.037-0.036,0.074-0.072,0.109-0.11c0.055-0.061,0.108-0.123,0.157-0.19c0.017-0.024,0.034-0.049,0.051-0.073
		c0.049-0.074,0.094-0.151,0.134-0.23c0.013-0.026,0.026-0.053,0.039-0.081c0.044-0.097,0.085-0.196,0.115-0.301l3.201-11.092
		l0.076-0.09c0.161-0.192,0.35-0.354,0.555-0.488c-0.216-0.127-0.452-0.225-0.703-0.285l-0.285-0.068
		c-0.928-0.22-1.923,0.111-2.537,0.841l-0.076,0.09l-3.201,11.092C44.56,166.572,44.52,166.671,44.475,166.768z"/>
	<path style="fill:#EDBA89;" d="M33.886,171.503c0.19,0.051,0.385,0.077,0.579,0.077c0.348,0,0.678-0.086,0.977-0.232
		c0.038-0.019,0.076-0.036,0.113-0.057c0.086-0.049,0.17-0.101,0.249-0.161c0.019-0.014,0.035-0.03,0.053-0.044
		c0.069-0.055,0.134-0.114,0.196-0.177c0.018-0.018,0.036-0.036,0.053-0.055c0.073-0.08,0.143-0.164,0.204-0.255
		c0.001-0.001,0.002-0.003,0.003-0.005c0.059-0.088,0.11-0.181,0.157-0.278c0.011-0.023,0.023-0.048,0.033-0.072
		c0.044-0.101,0.084-0.205,0.113-0.313L41.6,151.41c0.153-0.644,0.539-1.189,1.087-1.547c-0.216-0.127-0.451-0.224-0.701-0.284
		l-0.278-0.066c-0.661-0.155-1.358-0.045-1.932,0.31c-0.58,0.357-0.986,0.92-1.145,1.587l-4.984,18.521
		c-0.029,0.109-0.069,0.212-0.113,0.313c-0.01,0.024-0.022,0.048-0.033,0.072c-0.046,0.096-0.098,0.19-0.157,0.278
		c-0.001,0.002-0.002,0.004-0.003,0.005c-0.061,0.091-0.131,0.174-0.204,0.255c-0.017,0.019-0.035,0.037-0.053,0.055
		c-0.034,0.034-0.071,0.065-0.107,0.096C33.233,171.238,33.543,171.411,33.886,171.503z"/>
	<path style="fill:#EDBA89;" d="M31.07,192.555c-0.007-0.009-0.081-0.098-0.208-0.259c-1.099-1.397-6.169-8.196-6.306-14.752
		c-0.016-0.756,0.034-1.51,0.163-2.251c0.385-2.209,0.82-4.684,1.417-6.738l-2.628-1.109l-0.185,0.582
		c-0.681,2.145-1.156,4.866-1.574,7.266c-0.13,0.741-0.179,1.494-0.163,2.251c0.137,6.555,5.207,13.355,6.306,14.752
		c0.127,0.161,0.2,0.251,0.208,0.259c0.336,0.402,0.521,0.91,0.521,1.43l0.01,13.897h2.969l-0.01-13.897
		C31.591,193.464,31.405,192.956,31.07,192.555z"/>
	<path style="fill:#EDBA89;" d="M108.761,219.662c0.303,0,0.593-0.062,0.857-0.172l0.024-0.01c0.007-0.003,0.013-0.007,0.02-0.009
		c0.086-0.039,0.169-0.083,0.249-0.131c0.018-0.01,0.036-0.021,0.053-0.032c0.079-0.051,0.156-0.106,0.227-0.166
		c0.016-0.013,0.03-0.027,0.045-0.04c0.057-0.05,0.111-0.103,0.161-0.159c0.018-0.02,0.037-0.039,0.054-0.059
		c0.059-0.069,0.115-0.141,0.165-0.217c0.01-0.014,0.018-0.03,0.027-0.045c0.042-0.068,0.081-0.137,0.117-0.209
		c0.01-0.02,0.02-0.04,0.03-0.062c0.039-0.086,0.074-0.175,0.102-0.267c0.003-0.009,0.004-0.017,0.007-0.026
		c0.024-0.084,0.043-0.17,0.058-0.257c0.004-0.023,0.008-0.047,0.011-0.071c0.013-0.096,0.022-0.194,0.022-0.294v-7.179l0.06-0.118
		c0.216-0.428,0.54-0.775,0.93-1.015c-0.295-0.182-0.629-0.306-0.988-0.355c-0.014-0.002-0.027-0.005-0.041-0.007
		c-0.1-0.012-0.2-0.02-0.303-0.02h-0.291c-0.969,0-1.842,0.535-2.277,1.397l-0.06,0.118v7.179c0,0.099-0.009,0.197-0.022,0.294
		c-0.003,0.024-0.007,0.048-0.011,0.071c-0.014,0.087-0.033,0.173-0.058,0.257c-0.002,0.009-0.004,0.017-0.007,0.026
		c-0.028,0.092-0.063,0.18-0.102,0.267c-0.009,0.021-0.02,0.041-0.03,0.062c-0.035,0.072-0.074,0.141-0.117,0.209
		c-0.009,0.015-0.018,0.031-0.027,0.045c-0.05,0.076-0.106,0.148-0.165,0.217c-0.017,0.02-0.036,0.039-0.054,0.059
		c-0.048,0.052-0.098,0.101-0.151,0.148C107.67,219.445,108.19,219.662,108.761,219.662z"/>
	<path style="fill:#EDBA89;" d="M118.393,221.028c0.303,0,0.593-0.062,0.857-0.172l0.025-0.01c0.007-0.003,0.013-0.007,0.02-0.009
		c0.086-0.039,0.169-0.083,0.249-0.131c0.018-0.01,0.036-0.021,0.053-0.032c0.079-0.051,0.156-0.106,0.227-0.166
		c0.016-0.013,0.03-0.027,0.045-0.04c0.057-0.05,0.111-0.103,0.162-0.159c0.018-0.02,0.037-0.039,0.054-0.059
		c0.059-0.069,0.115-0.141,0.165-0.217c0.01-0.014,0.018-0.03,0.027-0.045c0.042-0.068,0.081-0.137,0.117-0.209
		c0.01-0.02,0.02-0.04,0.03-0.062c0.039-0.086,0.074-0.175,0.102-0.267c0.003-0.008,0.004-0.017,0.007-0.026
		c0.024-0.084,0.043-0.17,0.058-0.257c0.004-0.024,0.008-0.047,0.011-0.071c0.013-0.096,0.022-0.194,0.022-0.294v-5.583
		c0-0.915,0.487-1.717,1.213-2.168c-0.296-0.183-0.631-0.308-0.991-0.358c-0.014-0.002-0.028-0.005-0.042-0.007
		c-0.101-0.012-0.202-0.02-0.305-0.02h-0.291c-1.408,0-2.553,1.145-2.553,2.552v5.583c0,0.099-0.009,0.197-0.022,0.294
		c-0.003,0.024-0.007,0.048-0.011,0.071c-0.014,0.087-0.033,0.173-0.058,0.257c-0.002,0.009-0.004,0.017-0.007,0.026
		c-0.028,0.092-0.063,0.18-0.102,0.267c-0.009,0.021-0.02,0.041-0.03,0.062c-0.035,0.072-0.074,0.141-0.116,0.209
		c-0.009,0.015-0.018,0.031-0.027,0.045c-0.05,0.076-0.106,0.148-0.165,0.217c-0.017,0.02-0.036,0.039-0.054,0.059
		c-0.048,0.052-0.098,0.101-0.151,0.148C117.303,220.81,117.823,221.028,118.393,221.028z"/>
	<path style="fill:#EDBA89;" d="M89.685,219.44l-1.122,0.217v3.716c0,0.099-0.009,0.197-0.022,0.294
		c-0.003,0.024-0.007,0.048-0.011,0.071c-0.014,0.087-0.033,0.173-0.058,0.257c-0.002,0.009-0.004,0.017-0.007,0.026
		c-0.028,0.092-0.063,0.18-0.102,0.267c-0.009,0.021-0.02,0.041-0.03,0.062c-0.035,0.071-0.074,0.141-0.116,0.208
		c-0.01,0.015-0.018,0.031-0.028,0.046c-0.05,0.075-0.105,0.147-0.164,0.216c-0.018,0.021-0.036,0.04-0.055,0.061
		c-0.047,0.052-0.098,0.1-0.15,0.148c0.395,0.354,0.914,0.572,1.485,0.572c0.305,0,0.596-0.062,0.861-0.174l0.011-0.005
		c0.012-0.005,0.024-0.012,0.036-0.017c0.083-0.037,0.161-0.079,0.238-0.125c0.02-0.012,0.039-0.023,0.058-0.035
		c0.078-0.05,0.153-0.105,0.224-0.164c0.016-0.014,0.032-0.029,0.048-0.043c0.056-0.05,0.109-0.102,0.159-0.156
		c0.019-0.02,0.037-0.04,0.055-0.06c0.059-0.069,0.115-0.141,0.164-0.216c0.01-0.015,0.019-0.031,0.028-0.046
		c0.042-0.068,0.081-0.137,0.116-0.208c0.01-0.021,0.02-0.041,0.03-0.062c0.039-0.086,0.074-0.175,0.102-0.267
		c0.003-0.009,0.004-0.017,0.007-0.026c0.025-0.084,0.043-0.17,0.058-0.257c0.004-0.023,0.008-0.047,0.011-0.071
		c0.013-0.096,0.022-0.194,0.022-0.294v-16.685c0-0.915,0.486-1.717,1.211-2.168c-0.296-0.183-0.63-0.308-0.99-0.358
		c-0.014-0.002-0.029-0.005-0.043-0.007c-0.101-0.012-0.202-0.02-0.305-0.02h-0.291c-1.407,0-2.552,1.145-2.552,2.552v12.606
		L89.685,219.44z"/>
	<path style="fill:#EDBA89;" d="M99.153,219.662c0.305,0,0.596-0.062,0.861-0.174l0.011-0.005c0.012-0.005,0.024-0.012,0.036-0.017
		c0.083-0.037,0.161-0.079,0.238-0.125c0.02-0.012,0.039-0.023,0.058-0.035c0.078-0.05,0.153-0.105,0.224-0.164
		c0.016-0.014,0.032-0.029,0.048-0.043c0.056-0.05,0.109-0.102,0.159-0.156c0.019-0.02,0.037-0.04,0.055-0.061
		c0.059-0.069,0.115-0.141,0.164-0.216c0.01-0.015,0.019-0.031,0.028-0.046c0.042-0.068,0.081-0.137,0.116-0.208
		c0.01-0.021,0.02-0.041,0.03-0.062c0.039-0.086,0.074-0.175,0.102-0.267c0.003-0.009,0.004-0.017,0.007-0.026
		c0.024-0.084,0.043-0.17,0.058-0.257c0.004-0.023,0.008-0.047,0.011-0.071c0.013-0.096,0.022-0.194,0.022-0.294v-9.044l0.066-0.124
		c0.216-0.402,0.53-0.728,0.903-0.959c-0.297-0.183-0.632-0.309-0.992-0.358c-0.014-0.002-0.027-0.005-0.042-0.007
		c-0.099-0.012-0.2-0.02-0.303-0.02h-0.291c-0.939,0-1.799,0.515-2.244,1.343l-0.066,0.124v9.044c0,0.099-0.009,0.197-0.022,0.294
		c-0.003,0.024-0.007,0.048-0.011,0.071c-0.014,0.087-0.033,0.173-0.058,0.257c-0.002,0.009-0.004,0.017-0.007,0.026
		c-0.028,0.092-0.063,0.18-0.102,0.267c-0.009,0.021-0.02,0.041-0.03,0.062c-0.035,0.071-0.074,0.141-0.116,0.208
		c-0.01,0.015-0.018,0.031-0.028,0.046c-0.05,0.075-0.105,0.147-0.164,0.216c-0.018,0.021-0.036,0.04-0.055,0.06
		c-0.047,0.052-0.098,0.1-0.15,0.148C98.063,219.445,98.583,219.662,99.153,219.662z"/>
	<path style="fill:#EDBA89;" d="M91.361,246.733c-0.096-0.071-9.679-7.293-10.167-15.328c-0.29-4.778-0.618-10.193,1.336-11.828
		c0.094-0.079,0.197-0.15,0.309-0.214c0.043-0.024,0.092-0.044,0.137-0.067c0.072-0.036,0.144-0.074,0.223-0.105
		c0.067-0.026,0.141-0.048,0.212-0.07c0.064-0.02,0.126-0.042,0.194-0.06c0.021-0.006,0.044-0.009,0.066-0.013l-0.38-0.049
		c-0.009-0.001-0.017-0.001-0.025-0.003c-0.196-0.025-0.386-0.045-0.569-0.058c-0.026-0.002-0.051-0.004-0.076-0.005
		c-0.173-0.012-0.34-0.02-0.501-0.022c-0.037-0.001-0.072,0-0.108,0c-0.147,0-0.291,0.003-0.428,0.011
		c-0.048,0.003-0.093,0.007-0.139,0.012c-0.122,0.01-0.242,0.022-0.355,0.038c-0.058,0.009-0.112,0.021-0.169,0.031
		c-0.097,0.018-0.193,0.035-0.284,0.058c-0.068,0.017-0.13,0.039-0.194,0.06c-0.071,0.023-0.146,0.044-0.212,0.07
		c-0.079,0.031-0.15,0.068-0.223,0.105c-0.045,0.023-0.094,0.042-0.137,0.067c-0.112,0.065-0.215,0.135-0.309,0.214
		c-1.955,1.635-1.626,7.051-1.336,11.828c0.487,8.035,10.071,15.257,10.167,15.328c0.563,0.42,0.898,1.088,0.898,1.787v6.681h2.969
		v-6.681C92.259,247.821,91.924,247.153,91.361,246.733z"/>
</g>
<polygon style="fill:#FBCB99;" points="6.399,154.218 9.17,148.384 -0.19,147.782 "/>
<g>
	<path style="fill:#FBB616;" d="M71.36,182.746l5.481,2.315l3.349-7.318l-6.719-2.823l-2.031,7.343
		C71.422,182.381,71.396,182.545,71.36,182.746z"/>
	<polygon style="fill:#FBB616;" points="32.422,157.688 14.056,149.97 10.797,156.831 30.422,165.12 	"/>
</g>
<path style="fill:#ED2C40;" d="M81.601,186.939l3.445,1.455c0.46,0.194,0.969,0.198,1.43,0.01c0.463-0.187,0.825-0.544,1.018-1.004
	l1.639-3.882c0.194-0.46,0.198-0.968,0.01-1.43c-0.188-0.462-0.545-0.824-1.004-1.018l-3.231-1.358L81.601,186.939z"/>
<polygon style="fill:#DFE0E4;" points="-35.695,275.563 -35.695,284.316 -0.234,284.316 -0.234,275.563 -1.965,275.563 
	-34.235,275.563 "/>
<rect x="-35.695" y="289.883" style="fill:#4982AA;" width="35.46" height="22.013"/>
<polygon style="fill:#EFF2F9;" points="-29.709,275.563 -29.709,284.316 -0.234,284.316 -0.234,275.563 -1.673,275.563 
	-28.496,275.563 "/>
<rect x="-29.709" y="289.883" style="fill:#6598CB;" width="29.477" height="22.013"/>
<rect x="85.603" y="274.532" style="fill:#4982AA;" width="35.46" height="37.364"/>
<polygon style="fill:#DFE0E4;" points="85.603,260.211 85.603,268.963 121.064,268.963 121.064,260.211 119.332,260.211 
	87.063,260.211 "/>
<rect x="93.267" y="274.532" style="fill:#6598CB;" width="27.796" height="37.364"/>
<polygon style="fill:#EFF2F9;" points="93.268,260.211 93.268,268.963 121.064,268.963 121.064,260.211 119.707,260.211 
	94.413,260.211 "/>
<rect x="24.087" y="213.179" style="fill:#DFE0E4;" width="35.46" height="8.752"/>
<rect x="24.087" y="227.499" style="fill:#4982AA;" width="35.46" height="84.398"/>
<rect x="29.677" y="213.179" style="fill:#EFF2F9;" width="29.871" height="8.752"/>
<rect x="29.677" y="227.499" style="fill:#6598CB;" width="32.458" height="84.398"/>
<g>
	<polygon style="fill:#F7971E;" points="12.033,153.275 10.303,156.918 30.966,165.646 32.007,161.778 	"/>
	<path style="fill:#F7971E;" d="M78.332,181.484l-6.395-2.722l-0.947,3.422c-0.019,0.127-0.048,0.301-0.085,0.514l5.823,2.46
		l1.604-3.504L78.332,181.484L78.332,181.484z"/>
</g>
<g>
	<path style="fill:#202121;" d="M96.261,220.388c-1.538,0-2.784-1.246-2.784-2.784v-9.455c0-1.538,1.246-2.784,2.784-2.784
		s2.784,1.246,2.784,2.784v9.455C99.044,219.142,97.798,220.388,96.261,220.388z"/>
	<path style="fill:#202121;" d="M105.868,220.388c-1.537,0-2.784-1.246-2.784-2.784v-7.958c0-1.538,1.246-2.784,2.784-2.784
		c1.538,0,2.784,1.246,2.784,2.784v7.958C108.652,219.142,107.406,220.388,105.868,220.388z"/>
	<path style="fill:#202121;" d="M115.501,221.754c-1.538,0-2.784-1.246-2.784-2.784v-5.583c0-1.538,1.246-2.784,2.784-2.784
		c1.538,0,2.784,1.246,2.784,2.784v5.583C118.284,220.508,117.038,221.754,115.501,221.754z"/>
	<path style="fill:#202121;" d="M123.924,254.813h-1.732v-7.603c6.85-6.932,6.071-19.302,5.941-20.871v-12.951
		c0-4.17-3.393-7.563-7.562-7.563h-0.291c-1.319,0-2.56,0.339-3.64,0.935c-1.387-1.741-3.525-2.86-5.918-2.86h-0.291
		c-1.277,0-2.49,0.314-3.558,0.88c-1.388-1.648-3.467-2.696-5.785-2.696h-0.291c-1.057,0-2.074,0.218-3.001,0.618
		c-1.354-2.051-3.68-3.406-6.316-3.406h-0.291c-4.17,0-7.562,3.393-7.562,7.563v7.288c-3.038-0.326-5.411,0.254-7.206,1.757
		c-3.892,3.258-3.501,9.722-3.122,15.974c0.517,8.533,8.124,15.693,11.056,18.149v4.787h-1.46c-1.538,0-2.784,1.246-2.784,2.784
		v14.319v42.932c0,1.538,1.246,2.784,2.784,2.784h41.028c1.538,0,2.784-1.246,2.784-2.784v-42.932v-14.319
		C126.708,256.059,125.462,254.813,123.924,254.813z M85.68,260.38h1.46h32.269h1.732v8.752H85.68L85.68,260.38L85.68,260.38z
		 M88.802,246.456c-0.095-0.071-9.473-7.154-9.944-14.916c-0.268-4.416-0.601-9.913,1.138-11.367
		c0.646-0.541,1.912-0.679,3.633-0.41v3.781c0,1.538,1.246,2.784,2.784,2.784c1.538,0,2.784-1.246,2.784-2.784v-16.685
		c0-1.1,0.895-1.996,1.995-1.996h0.291c1.1,0,1.996,0.895,1.996,1.996v1.291c0,1.367,0.992,2.532,2.342,2.748
		c1.35,0.217,2.657-0.579,3.085-1.877c0.27-0.82,1.031-1.37,1.894-1.37h0.291c1.1,0,1.996,0.895,1.996,1.996v0.393
		c0,1.376,1.005,2.545,2.365,2.752c1.361,0.206,2.668-0.611,3.077-1.925c0.261-0.837,1.027-1.4,1.906-1.4h0.291
		c1.1,0,1.995,0.895,1.995,1.995v1.925c0,1.538,1.246,2.784,2.784,2.784c1.538,0,2.784-1.246,2.784-2.784
		c0-1.1,0.896-1.995,1.996-1.995h0.291c1.1,0,1.995,0.895,1.995,1.995v13.073c0,0.089,0.004,0.178,0.013,0.267
		c0.321,3.327,0.053,12.894-4.969,17.145c-0.625,0.529-0.985,1.306-0.985,2.125v8.815H89.923v-6.124
		C89.923,247.81,89.505,246.981,88.802,246.456z M121.14,312.064H85.68V274.7h35.461V312.064z"/>
	<path style="fill:#202121;" d="M-25.037,235.74c-1.538,0-2.784-1.246-2.784-2.784v-9.455c0-1.538,1.246-2.784,2.784-2.784
		c1.538,0,2.784,1.246,2.784,2.784v9.455C-22.253,234.494-23.5,235.74-25.037,235.74z"/>
	<path style="fill:#202121;" d="M-15.431,235.74c-1.538,0-2.784-1.246-2.784-2.784v-7.958c0-1.538,1.246-2.784,2.784-2.784
		s2.784,1.246,2.784,2.784v7.958C-12.647,234.494-13.893,235.74-15.431,235.74z"/>
	<path style="fill:#202121;" d="M-5.797,237.106c-1.538,0-2.784-1.246-2.784-2.784v-5.583c0-1.538,1.246-2.784,2.784-2.784
		s2.784,1.246,2.784,2.784v5.583C-3.013,235.86-4.259,237.106-5.797,237.106z"/>
	<path style="fill:#202121;" d="M2.627,270.165H0.895v-7.603c6.85-6.932,6.071-19.302,5.941-20.871V228.74
		c0-4.17-3.393-7.563-7.563-7.563h-0.291c-1.319,0-2.56,0.339-3.64,0.935c-1.387-1.741-3.525-2.86-5.919-2.86h-0.291
		c-1.276,0-2.49,0.314-3.557,0.88c-1.389-1.648-3.467-2.697-5.786-2.697H-20.5c-1.057,0-2.074,0.218-3,0.618
		c-1.354-2.05-3.68-3.406-6.316-3.406h-0.291c-4.17,0-7.563,3.393-7.563,7.563v7.288c-3.039-0.328-5.41,0.254-7.205,1.756
		c-3.892,3.257-3.501,9.722-3.122,15.974c0.517,8.533,8.124,15.693,11.055,18.149v4.787h-1.46c-1.538,0-2.784,1.246-2.784,2.784
		v14.32v27.58c0,1.538,1.246,2.784,2.784,2.784H2.627c1.538,0,2.784-1.246,2.784-2.784v-27.58v-14.32
		C5.41,271.411,4.164,270.165,2.627,270.165z M-35.619,275.732h1.46h32.27h1.732v8.752h-35.461V275.732z M-32.5,261.806
		c-2.632-1.953-9.548-8.439-9.94-14.914c-0.268-4.416-0.601-9.913,1.138-11.368c0.645-0.54,1.913-0.679,3.632-0.41v3.781
		c0,1.538,1.246,2.784,2.784,2.784s2.784-1.246,2.784-2.784V222.21c0-1.1,0.895-1.996,1.996-1.996h0.291
		c1.1,0,1.996,0.895,1.996,1.996v1.291c0,1.367,0.992,2.532,2.342,2.748c1.35,0.217,2.657-0.579,3.085-1.877
		c0.271-0.82,1.031-1.371,1.893-1.371h0.291c1.1,0,1.996,0.895,1.996,1.996v0.394c0,1.376,1.005,2.545,2.365,2.752
		c1.36,0.204,2.667-0.611,3.077-1.924c0.261-0.838,1.027-1.4,1.906-1.4h0.291c1.1,0,1.996,0.895,1.996,1.995v1.926
		c0,1.538,1.246,2.784,2.784,2.784s2.784-1.246,2.784-2.784c0-1.1,0.895-1.996,1.996-1.996h0.291c1.1,0,1.996,0.895,1.996,1.996
		v13.073c0,0.089,0.004,0.178,0.013,0.267c0.321,3.327,0.054,12.894-4.969,17.146c-0.625,0.529-0.985,1.306-0.985,2.125v8.815
		h-26.702v-6.124C-31.375,263.16-31.792,262.33-32.5,261.806z M-0.157,312.064h-35.462v-22.012h35.462V312.064z"/>
	<path style="fill:#202121;" d="M93.963,180.03c-0.737-1.815-2.137-3.234-3.946-3.998l-15.117-6.353l0.699-2.527
		c0.009-0.033,0.018-0.066,0.025-0.099c0.467-1.966,0.14-3.995-0.919-5.714c-1.059-1.72-2.726-2.924-4.689-3.39l-0.285-0.068
		c-1.284-0.305-2.569-0.262-3.758,0.069c-0.947-2.015-2.768-3.597-5.098-4.151l-0.282-0.067c-1.241-0.294-2.493-0.27-3.661,0.033
		c-0.098-0.193-0.204-0.382-0.318-0.568c-1.06-1.72-2.726-2.924-4.689-3.39l-0.285-0.068c-1.027-0.244-2.065-0.268-3.057-0.092
		c-0.175-0.477-0.399-0.939-0.671-1.382c-1.06-1.72-2.726-2.924-4.695-3.392l-0.278-0.066c-1.966-0.467-3.996-0.14-5.715,0.92
		c-1.707,1.052-2.905,2.701-3.379,4.647l-0.495,1.841l-19.602-8.237c-1.372-0.577-2.954,0.027-3.593,1.372l-5.517,11.615
		c-0.588,1.239-0.187,2.721,0.945,3.494c0.403,0.275,0.836,0.511,1.285,0.7l11.921,5.035c-0.879,2.581-1.415,5.648-1.897,8.41
		c-1.521,8.727,4.705,17.778,6.798,20.523l0.01,12.656h-2.317c-1.538,0-2.784,1.246-2.784,2.784v14.32v89.964
		c0,1.538,1.246,2.784,2.784,2.784h41.028c1.538,0,2.784-1.246,2.784-2.784V245.19c0-1.538-1.246-2.784-2.784-2.784
		c-1.538,0-2.784,1.246-2.784,2.784v66.875H24.165v-84.397h35.461v4.64v3.093c0,1.538,1.246,2.784,2.784,2.784
		c1.538,0,2.784-1.246,2.784-2.784v-3.093v-7.424v-14.32c0-1.538-1.246-2.784-2.784-2.784h-1.167l0.025-7.191
		c4.701-3.114,7.341-8.523,8.764-12.754l12.734,5.378c0.918,0.388,1.885,0.582,2.853,0.582c0.934,0,1.869-0.181,2.76-0.543
		c1.816-0.737,3.235-2.137,3.997-3.942l1.549-3.667C94.687,183.838,94.701,181.845,93.963,180.03z M10.874,156.806l3.167-6.667
		l17.846,7.5l-1.943,7.221L10.874,156.806z M24.165,222.1v-8.752h35.461v8.752H24.165z M70.217,165.727L66.1,180.613
		c-0.032,0.116-0.057,0.239-0.074,0.358c-0.017,0.119-1.763,11.971-8.796,15.538c-0.932,0.473-1.521,1.428-1.524,2.473l-0.03,8.511
		H29.265l-0.01-13.34c0-0.652-0.232-1.286-0.651-1.787c-0.076-0.091-7.565-9.149-6.229-16.809c0.421-2.415,0.888-5.088,1.556-7.193
		l5.034,2.126c0.304,0.815,0.98,1.476,1.884,1.719c1.483,0.399,3.012-0.48,3.411-1.965l4.969-18.461
		c0.007-0.027,0.014-0.053,0.02-0.081c0.123-0.518,0.441-0.958,0.894-1.238c0.454-0.279,0.989-0.365,1.512-0.241l0.279,0.066
		c0.518,0.123,0.958,0.441,1.238,0.895c0.279,0.454,0.366,0.989,0.242,1.509l-0.282,1.191l-3.279,11.362
		c-0.426,1.478,0.425,3.02,1.903,3.447c0.258,0.074,0.518,0.11,0.773,0.11c1.208,0,2.321-0.794,2.673-2.012l3.169-10.979
		c0.48-0.571,1.242-0.834,1.982-0.658l0.285,0.068c0.519,0.123,0.958,0.441,1.238,0.895c0.275,0.446,0.36,0.971,0.246,1.482
		l-2.916,9.849c-0.436,1.474,0.405,3.023,1.879,3.459c0.264,0.078,0.53,0.115,0.791,0.115c1.201,0,2.31-0.784,2.668-1.994l2.7-9.118
		c0.471-0.643,1.273-0.951,2.065-0.762l0.282,0.067c1.07,0.255,1.735,1.332,1.48,2.403l-0.422,1.777l-2.373,7.563
		c-0.46,1.467,0.356,3.029,1.823,3.489c0.277,0.087,0.558,0.128,0.834,0.128c1.184,0,2.282-0.762,2.655-1.951l2.403-7.659
		c0.01-0.033,0.017-0.067,0.026-0.1c0.008-0.03,0.019-0.059,0.026-0.09c0.254-1.071,1.332-1.734,2.401-1.481l0.285,0.068
		C69.785,163.615,70.446,164.669,70.217,165.727z M76.546,184.542l-5.109-2.158c0.033-0.188,0.058-0.34,0.075-0.451l1.893-6.845
		l6.263,2.632L76.546,184.542z M88.796,183.477l-1.549,3.668c-0.183,0.435-0.525,0.772-0.962,0.949
		c-0.437,0.178-0.918,0.175-1.352-0.009l-3.255-1.375l3.126-6.83l3.054,1.283c0.434,0.183,0.771,0.525,0.949,0.962
		C88.983,182.562,88.98,183.042,88.796,183.477z"/>
	<path style="fill:#202121;" d="M7.15,160.941c-0.701,0-1.403-0.264-1.944-0.792l-13.122-12.816
		c-0.833-0.814-1.072-2.06-0.598-3.124c0.474-1.063,1.549-1.722,2.722-1.646l18.639,1.2c1.534,0.099,2.698,1.423,2.599,2.957
		c-0.099,1.534-1.41,2.699-2.957,2.599l-11.137-0.717l7.744,7.563c1.1,1.074,1.121,2.837,0.046,3.936
		C8.596,160.661,7.873,160.941,7.15,160.941z"/>
</g>
</svg>
