<?xml version="1.0" encoding="utf-8"?>
<!-- Generator: Adobe Illustrator 21.0.2, SVG Export Plug-In . SVG Version: 6.00 Build 0)  -->
<svg xmlns:xlink="http://www.w3.org/1999/xlink" version="1.1" id="Layer_1" xmlns="http://www.w3.org/2000/svg" x="0px" y="0px"
	 viewBox="0 0 48 48" style="enable-background:new 0 0 48 48;" xml:space="preserve">
<style type="text/css">
	.st0{fill:#553A97;}
	.st1{fill:#EE3D96;}
</style>
<g>
	<path class="st0" d="M32,18.3c1.4,0,2.6-1.2,2.6-2.6V4.3c0-1.4-1.2-2.6-2.6-2.6H16c-1.4,0-2.6,1.2-2.6,2.6v11.4
		c0,1.4,1.2,2.6,2.6,2.6h7v2.2h-2.2c-0.5,0-1,0.4-1,1c0,0.5,0.4,1,1,1h6.4c0.5,0,1-0.4,1-1c0-0.5-0.4-1-1-1H25v-2.2H32z M16,16.4
		c-0.4,0-0.7-0.3-0.7-0.7V4.3c0-0.4,0.3-0.7,0.7-0.7H32c0.4,0,0.7,0.3,0.7,0.7v11.4c0,0.4-0.3,0.7-0.7,0.7H16z M16,16.4"/>
	<path class="st0" d="M18.6,25.6H2.6c-1.4,0-2.6,1.2-2.6,2.6v11.4c0,1.4,1.2,2.6,2.6,2.6h7v2.2H7.4c-0.5,0-1,0.4-1,1
		c0,0.5,0.4,1,1,1h6.4c0.5,0,1-0.4,1-1c0-0.5-0.4-1-1-1h-2.2v-2.2h7c1.4,0,2.6-1.2,2.6-2.6V28.2C21.2,26.7,20,25.6,18.6,25.6
		L18.6,25.6z M19.3,39.6c0,0.4-0.3,0.7-0.7,0.7H2.6c-0.4,0-0.7-0.3-0.7-0.7V28.2c0-0.4,0.3-0.7,0.7-0.7h15.9c0.4,0,0.7,0.3,0.7,0.7
		L19.3,39.6L19.3,39.6z M19.3,39.6"/>
	<path class="st0" d="M45.4,25.6H29.4c-1.4,0-2.6,1.2-2.6,2.6v11.4c0,1.4,1.2,2.6,2.6,2.6h7v2.2h-2.2c-0.5,0-1,0.4-1,1
		c0,0.5,0.4,1,1,1h6.4c0.5,0,1-0.4,1-1c0-0.5-0.4-1-1-1h-2.2v-2.2h7c1.4,0,2.6-1.2,2.6-2.6V28.2C48,26.7,46.8,25.6,45.4,25.6
		L45.4,25.6z M46.1,39.6c0,0.4-0.3,0.7-0.7,0.7H29.4c-0.4,0-0.7-0.3-0.7-0.7V28.2c0-0.4,0.3-0.7,0.7-0.7h15.9c0.4,0,0.7,0.3,0.7,0.7
		L46.1,39.6L46.1,39.6z M46.1,39.6"/>
	<path class="st1" d="M2.7,8.4v13c0,0.5,0.4,1,1,1c0.5,0,1-0.4,1-1V9.4h5.2c0.5,0,1-0.4,1-1c0-0.5-0.4-1-1-1H3.7
		C3.2,7.5,2.7,7.9,2.7,8.4L2.7,8.4z M2.7,8.4"/>
	<path class="st1" d="M44.3,22.5c0.5,0,1-0.4,1-1V8.4c0-0.5-0.4-1-1-1h-6.2c-0.5,0-1,0.4-1,1c0,0.5,0.4,1,1,1h5.2v12.1
		C43.4,22,43.8,22.5,44.3,22.5L44.3,22.5z M44.3,22.5"/>
</g>
</svg>
