<?xml version="1.0" encoding="utf-8"?>
<!-- Generator: Adobe Illustrator 21.0.2, SVG Export Plug-In . SVG Version: 6.00 Build 0)  -->
<svg xmlns:xlink="http://www.w3.org/1999/xlink" version="1.1" id="Layer_1" xmlns="http://www.w3.org/2000/svg" x="0px" y="0px"
	 viewBox="0 0 48 48" style="enable-background:new 0 0 48 48;" xml:space="preserve">
<style type="text/css">
	.st0{fill:#553A97;}
	.st1{fill:#EE3D96;}
</style>
<g>
	<path class="st0" d="M47,0.3H0.9c-0.5,0-1,0.4-1,1c0,0.5,0.4,1,1,1h1.8v28.1c0,1.4,1.2,2.6,2.6,2.6h37.5c1.4,0,2.6-1.2,2.6-2.6V2.3
		H47c0.5,0,1-0.4,1-1C47.9,0.8,47.5,0.3,47,0.3L47,0.3z M43.4,30.4c0,0.4-0.3,0.6-0.6,0.6H5.3c-0.4,0-0.6-0.3-0.6-0.6V2.3h38.8V30.4
		z M43.4,30.4"/>
	<path class="st0" d="M25.4,39.4v-2.5h3.4c0.5,0,1-0.4,1-1c0-0.5-0.4-1-1-1H20c-0.5,0-1,0.4-1,1c0,0.5,0.4,1,1,1h3.5v2.5l-6.8,6.8
		c-0.4,0.4-0.4,1,0,1.4c0.2,0.2,0.4,0.3,0.7,0.3s0.5-0.1,0.7-0.3l5.5-5.5v4.8c0,0.5,0.4,1,1,1c0.5,0,1-0.4,1-1v-4.8l5.4,5.4
		c0.2,0.2,0.4,0.3,0.7,0.3c0.2,0,0.5-0.1,0.7-0.3c0.4-0.4,0.4-1,0-1.4L25.4,39.4z M25.4,39.4"/>
	<path class="st1" d="M27.6,14.6H35c0.5,0,1-0.4,1-1c0-2-0.7-4-2.1-5.5c-1.6-1.8-3.9-2.8-6.3-2.8c-0.5,0-1,0.4-1,1v7.4
		C26.6,14.2,27,14.6,27.6,14.6L27.6,14.6z M28.6,7.3c1.5,0.2,2.9,1,3.9,2.1c0.8,0.9,1.4,2.1,1.5,3.3h-5.4V7.3z M28.6,7.3"/>
	<path class="st0" d="M23.4,28.1c5.7,0,10.4-4.7,10.4-10.4c0-0.5-0.4-1-1-1h-8.5V8.2c0-0.5-0.4-1-1-1C17.7,7.3,13,11.9,13,17.7
		C13,23.4,17.7,28.1,23.4,28.1L23.4,28.1z M22.4,9.3v8.4c0,0.5,0.4,1,1,1h8.4c-0.5,4.2-4.1,7.5-8.4,7.5c-4.7,0-8.5-3.8-8.5-8.5
		C14.9,13.3,18.2,9.7,22.4,9.3L22.4,9.3z M22.4,9.3"/>
</g>
</svg>
