<?xml version="1.0" encoding="utf-8"?>
<!-- Generator: Adobe Illustrator 21.0.2, SVG Export Plug-In . SVG Version: 6.00 Build 0)  -->
<svg xmlns:xlink="http://www.w3.org/1999/xlink" version="1.1" id="Layer_1" xmlns="http://www.w3.org/2000/svg" x="0px" y="0px"
	 viewBox="0 0 48 48" style="enable-background:new 0 0 48 48;" xml:space="preserve">
<style type="text/css">
	.st0{fill:#553A96;}
	.st1{fill:#ED3F95;}
</style>
<g>
	<path class="st0" d="M47.6,21.8L25,1.6c0,0-0.1-0.1-0.1-0.1C24.3,1,23.6,1,23,1.4L0.4,21.6c-0.6,0.5-0.6,1.3-0.1,1.9
		C0.6,23.8,1,24,1.3,24c0.3,0,0.6-0.1,0.9-0.3L6.3,20v23.6c0,1.8,1.5,3.4,3.4,3.4h28.7c1.9,0,3.4-1.8,3.4-4.2V20.1l4.1,3.6
		c0.3,0.2,0.6,0.3,0.9,0.3c0.4,0,0.7-0.1,1-0.4C48.1,23.1,48.1,22.3,47.6,21.8L47.6,21.8z M39,28.3v14.3c0,1-0.5,1.5-0.7,1.5
		l-28.7,0c-0.4,0-0.7-0.3-0.7-0.7V17.6l15-13.4L39,17.7V28.3z M39,28.3"/>
	<path class="st1" d="M29.6,16.9H18.4c-1.9,0-3.4,1.9-3.4,4.3v1v6.3v3c0,1.9,1.5,3.4,3.4,3.4h11.1c1.9,0,3.4-1.9,3.4-4.3v-1v-6.3v-3
		C32.9,18.5,31.4,16.9,29.6,16.9z M17.8,21.2c0-1,0.5-1.6,0.7-1.6l4.2,0v4.9h-4.9V21.2z M18.4,32.1c-0.4,0-0.7-0.3-0.7-0.7v-3.1
		c0,0,0,0,0,0v-1.2h3.4c0,0,0,0,0,0h1.5v4.9L18.4,32.1z M30.2,30.6c0,1-0.5,1.6-0.7,1.6l-4.2,0v-2.6c0,0,0,0,0,0v-2.3h4.9V30.6z
		 M30.3,23.4C30.3,23.4,30.3,23.4,30.3,23.4l0,1.1h-4.9v-4.9l4.2,0c0.4,0,0.7,0.3,0.7,0.7V23.4z"/>
</g>
</svg>
