<?xml version="1.0" encoding="utf-8"?>
<!-- Generator: Adobe Illustrator 21.0.2, SVG Export Plug-In . SVG Version: 6.00 Build 0)  -->
<svg xmlns:xlink="http://www.w3.org/1999/xlink" version="1.1" id="Layer_1" xmlns="http://www.w3.org/2000/svg" x="0px" y="0px"
	 viewBox="0 0 48 48" style="enable-background:new 0 0 48 48;" xml:space="preserve">
<style type="text/css">
	.st0{clip-path:url(#SVGID_2_);fill:#553A97;}
	.st1{fill:#EE3D96;}
</style>
<g>
	<g>
		<defs>
			<rect id="SVGID_1_" x="0" y="0" width="48" height="47.7"/>
		</defs>
		<clipPath id="SVGID_2_">
			<use xlink:href="#SVGID_1_"  style="overflow:visible;"/>
		</clipPath>
		<path class="st0" d="M19.9,0H2.7C1.2,0,0,1.3,0,2.8v12.3c0,1.5,1.2,2.8,2.8,2.8h7.6v2.5H7.8c-0.5,0-1,0.4-1,1c0,0.5,0.4,1,1,1h6.9
			c0.5,0,1-0.4,1-1c0-0.5-0.4-1-1-1h-2.5v-2.5h7.6c1.5,0,2.8-1.2,2.8-2.8V2.8C22.6,1.3,21.4,0,19.9,0L19.9,0z M20.7,15.1
			c0,0.4-0.4,0.8-0.8,0.8H2.7c-0.5,0-0.8-0.4-0.8-0.8V2.8C1.9,2.3,2.3,2,2.7,2h17.1c0.5,0,0.8,0.4,0.8,0.8V15.1z M20.7,15.1"/>
		<path class="st0" d="M45.2,25.4H28.1c-1.5,0-2.8,1.2-2.8,2.8v12.3c0,1.5,1.2,2.8,2.8,2.8h7.6v2.5h-2.5c-0.5,0-1,0.4-1,1
			c0,0.5,0.4,1,1,1h6.9c0.5,0,1-0.4,1-1c0-0.5-0.4-1-1-1h-2.5v-2.5h7.6c1.5,0,2.8-1.2,2.8-2.8V28.1C48,26.6,46.7,25.4,45.2,25.4
			L45.2,25.4z M46,40.4c0,0.4-0.4,0.8-0.8,0.8H28.1c-0.5,0-0.8-0.4-0.8-0.8V28.1c0-0.4,0.4-0.8,0.8-0.8h17.1c0.4,0,0.8,0.4,0.8,0.8
			V40.4z M46,40.4"/>
	</g>
	<path class="st1" d="M36.6,8h-9.4c-0.5,0-1,0.4-1,1c0,0.5,0.4,1,1,1h8.4v9.3l-1.4-1.4c-0.4-0.4-1-0.4-1.4,0c-0.4,0.4-0.4,1,0,1.4
		l3.1,3.1c0.2,0.2,0.4,0.3,0.7,0.3c0.2,0,0.5-0.1,0.7-0.3l3.1-3.1c0.4-0.4,0.4-1,0-1.4c-0.4-0.4-1-0.4-1.4,0l-1.4,1.4V8.9
		C37.6,8.4,37.2,8,36.6,8L36.6,8z M36.6,8"/>
	<path class="st1" d="M20.7,38.3h-8.4V29l1.4,1.4c0.2,0.2,0.4,0.3,0.7,0.3c0.2,0,0.5-0.1,0.7-0.3c0.4-0.4,0.4-1,0-1.4L12,26
		c-0.4-0.4-1-0.4-1.4,0L7.5,29c-0.4,0.4-0.4,1,0,1.4c0.4,0.4,1,0.4,1.4,0l1.4-1.4v10.2c0,0.5,0.4,1,1,1h9.4c0.5,0,1-0.4,1-1
		C21.6,38.7,21.2,38.3,20.7,38.3L20.7,38.3z M20.7,38.3"/>
</g>
</svg>
