<?xml version="1.0" encoding="utf-8"?>
<!-- Generator: Adobe Illustrator 21.0.2, SVG Export Plug-In . SVG Version: 6.00 Build 0)  -->
<svg xmlns:xlink="http://www.w3.org/1999/xlink" version="1.1" id="Layer_1" xmlns="http://www.w3.org/2000/svg" x="0px" y="0px"
	 viewBox="0 0 48 48" style="enable-background:new 0 0 48 48;" xml:space="preserve">
<style type="text/css">
	.st0{fill:#553A97;}
	.st1{fill:#EE3D96;}
</style>
<g>
	<path class="st0" d="M4.6,7v24.4l-4.5,9.1c-0.1,0.3-0.1,0.7,0,0.9c0.2,0.3,0.5,0.5,0.8,0.5h46c0.5,0,1-0.4,1-1c0-0.2,0-0.4-0.1-0.5
		l-4.4-9V7c0-0.5-0.4-1-1-1H5.6C5.1,6,4.6,6.5,4.6,7L4.6,7z M18.2,39.5l0.5-1h10.5l0.5,1H18.2z M6.6,8h34.9v22.6H6.6V8z M41.8,32.6
		l3.6,7.4H32.1l-1.4-2.8c-0.2-0.3-0.5-0.5-0.9-0.5H18.1c-0.4,0-0.7,0.2-0.9,0.5l-1.4,2.8H2.5l3.7-7.4H41.8z M41.8,32.6"/>
	<path class="st1" d="M29,22.4c-0.4,0-0.7,0.3-0.7,0.7c0,0.9-0.4,1.3-1.3,1.3h-5.3c0.5-0.7,0.6-1.4,0.7-2v-3.3h2
		c0.4,0,0.7-0.3,0.7-0.7s-0.3-0.7-0.7-0.7h-2v-3.3c0-1.1,0.9-2,2-2c1.1,0,2,0.9,2,2c0,0.4,0.3,0.7,0.7,0.7c0.4,0,0.7-0.3,0.7-0.7
		c0-1.8-1.5-3.3-3.3-3.3c-1.8,0-3.3,1.5-3.3,3.3l0,3.3h-2c-0.4,0-0.7,0.3-0.7,0.7s0.3,0.7,0.7,0.7h2l0,3.3c0,0.2-0.1,2-2,2
		c-0.4,0-0.7,0.3-0.7,0.7s0.3,0.7,0.7,0.7h8c1.7,0,2.7-1,2.7-2.7C29.7,22.7,29.4,22.4,29,22.4z"/>
</g>
</svg>
