<?xml version="1.0" encoding="utf-8"?>
<!-- Generator: Adobe Illustrator 21.0.2, SVG Export Plug-In . SVG Version: 6.00 Build 0)  -->
<svg xmlns:xlink="http://www.w3.org/1999/xlink" version="1.1" id="Layer_1" xmlns="http://www.w3.org/2000/svg" x="0px" y="0px"
	 viewBox="0 0 48 48" style="enable-background:new 0 0 48 48;" xml:space="preserve">
<style type="text/css">
	.st0{fill:#553A97;}
	.st1{fill:#EE3D96;}
</style>
<g>
	<path class="st0" d="M2,48H46c0.5,0,1-0.4,1-1v-34c0-0.1,0-0.1,0-0.2c0,0,0,0,0-0.1c0,0,0-0.1,0-0.1c0,0,0,0,0-0.1c0,0,0-0.1,0-0.1
		c0,0,0,0,0-0.1c0,0,0,0,0,0L37.3,0.4C37.1,0.1,36.8,0,36.5,0h-25c-0.3,0-0.6,0.1-0.8,0.4L1.2,12.5c0,0,0,0,0,0c0,0,0,0,0,0.1
		c0,0,0,0.1,0,0.1c0,0,0,0,0,0.1c0,0,0,0.1,0,0.1c0,0,0,0,0,0.1c0,0.1,0,0.1,0,0.2v34C1,47.6,1.4,48,2,48L2,48z M25,1.9h11.1l8,10.2
		H25V1.9z M12,1.9H23v10.2H3.9L12,1.9z M2.9,14h42.2v32.1H2.9V14z M2.9,14"/>
	<path class="st1" d="M38.4,23H9.6c-0.5,0-1,0.4-1,1c0,0.5,0.4,1,1,1h28.9c0.5,0,1-0.4,1-1C39.4,23.5,39,23,38.4,23L38.4,23z
		 M38.4,23"/>
	<path class="st1" d="M32.9,29.6H15.1c-0.5,0-1,0.4-1,1c0,0.5,0.4,1,1,1h17.9c0.5,0,1-0.4,1-1C33.9,30.1,33.5,29.6,32.9,29.6
		L32.9,29.6z M32.9,29.6"/>
	<path class="st1" d="M32.9,36.3H15.1c-0.5,0-1,0.4-1,1c0,0.5,0.4,1,1,1h17.9c0.5,0,1-0.4,1-1C33.9,36.7,33.5,36.3,32.9,36.3
		L32.9,36.3z M32.9,36.3"/>
</g>
</svg>
