<?xml version="1.0" encoding="iso-8859-1"?>
<!-- Generator: Adobe Illustrator 21.0.2, SVG Export Plug-In . SVG Version: 6.00 Build 0)  -->
<svg xmlns:xlink="http://www.w3.org/1999/xlink" version="1.1" id="Layer_1" xmlns="http://www.w3.org/2000/svg" x="0px" y="0px"
	 viewBox="-49 141 178 178" style="enable-background:new -49 141 178 178;" xml:space="preserve">
<g>
	<path style="fill:#E4F1FB;" d="M76.708,269.956c-4.275-2.325-7.484-6.335-8.806-11.003l-0.116-0.41l-0.481,0.016
		c-5.026,0-9.115-4.089-9.115-9.114c0-0.383,0.027-0.782,0.08-1.186l0.081-0.617h-99.935v34.64h98.2
		c0.113,0,0.233,0.011,0.369,0.034l0.203,0.034l0.175-0.108c1.017-0.626,2.048-1.126,3.003-1.454l16.628-6.511v-4.166
		L76.708,269.956z M-13.378,266.944c1.205,0,2.185,0.98,2.185,2.185v4.884c0,1.205-0.98,2.185-2.185,2.185h-18.993
		c-1.205,0-2.185-0.98-2.185-2.185V255.91c0-1.205,0.98-2.185,2.185-2.185h13.778c1.205,0,2.185,0.98,2.185,2.185
		c0,1.205-0.98,2.185-2.185,2.185h-11.593v13.734h14.623v-2.699C-15.564,267.925-14.583,266.944-13.378,266.944z M-21.014,269.86
		c-0.605-0.004-1.187-0.262-1.596-0.708l-4.791-5.219c-0.814-0.887-0.755-2.272,0.133-3.087c0.404-0.371,0.929-0.575,1.477-0.575
		c0.611,0,1.198,0.258,1.611,0.708l3.202,3.488l9.476-10.055c0.417-0.443,0.982-0.687,1.591-0.687c0.559,0,1.091,0.212,1.498,0.595
		c0.425,0.4,0.668,0.942,0.685,1.526c0.017,0.584-0.193,1.139-0.594,1.564l-11.087,11.765
		C-19.821,269.609-20.401,269.86-21.014,269.86z M29.707,261.119H-0.418c-1.205,0-2.185-0.98-2.185-2.185
		c0-1.205,0.98-2.185,2.185-2.185h30.125c1.205,0,2.185,0.98,2.185,2.185C31.892,260.139,30.912,261.119,29.707,261.119z
		 M-0.418,268.804h59.159c1.205,0,2.185,0.98,2.185,2.185s-0.98,2.185-2.185,2.185H-0.418c-1.205,0-2.185-0.98-2.185-2.185
		S-1.623,268.804-0.418,268.804z"/>
	<path style="fill:#E4F1FB;" d="M62.287,232.174c0.752-8.087,5.517-15.181,12.748-18.975l0.292-0.153v-17.202H-41.583v36.826H62.242
		L62.287,232.174z M-21.014,220.247c-0.605-0.004-1.187-0.262-1.596-0.708l-4.791-5.219c-0.394-0.43-0.598-0.988-0.573-1.571
		c0.025-0.583,0.276-1.122,0.706-1.517c0.404-0.371,0.929-0.575,1.477-0.575c0.611,0,1.198,0.258,1.611,0.708l3.202,3.488
		l9.476-10.055c0.417-0.443,0.982-0.687,1.591-0.687c0.559,0,1.091,0.212,1.498,0.595c0.425,0.4,0.668,0.942,0.685,1.526
		c0.017,0.583-0.193,1.139-0.594,1.564l-11.087,11.765C-19.821,219.997-20.401,220.247-21.014,220.247z M-18.594,208.482h-11.593
		v13.734h14.623v-2.699c0-1.205,0.98-2.185,2.185-2.185s2.185,0.98,2.185,2.185v4.884c0,1.205-0.98,2.185-2.185,2.185h-18.993
		c-1.205,0-2.185-0.98-2.185-2.185v-18.104c0-1.205,0.98-2.185,2.185-2.185h13.778c1.205,0,2.185,0.98,2.185,2.185
		S-17.388,208.482-18.594,208.482z M29.707,211.506H-0.418c-1.205,0-2.185-0.98-2.185-2.185s0.98-2.185,2.185-2.185h30.125
		c1.205,0,2.185,0.98,2.185,2.185S30.912,211.506,29.707,211.506z M-2.603,221.377c0-1.205,0.98-2.185,2.185-2.185h59.586
		c1.205,0,2.185,0.98,2.185,2.185s-0.98,2.185-2.185,2.185H-0.418C-1.623,223.562-2.603,222.582-2.603,221.377z"/>
	<path style="fill:#E4F1FB;" d="M75.328,146.232H-41.583v36.826H75.328V146.232z M-21.014,170.635
		c-0.605-0.004-1.187-0.262-1.596-0.708l-4.791-5.219c-0.394-0.43-0.598-0.988-0.573-1.571c0.025-0.583,0.276-1.122,0.706-1.517
		c0.404-0.371,0.929-0.575,1.477-0.575c0.611,0,1.198,0.258,1.611,0.708l3.202,3.488l9.476-10.055
		c0.417-0.443,0.982-0.687,1.591-0.687c0.559,0,1.091,0.211,1.498,0.595c0.425,0.4,0.668,0.942,0.685,1.526
		c0.017,0.584-0.193,1.139-0.594,1.564l-11.088,11.765C-19.821,170.385-20.401,170.635-21.014,170.635z M-18.594,158.871h-11.593
		v13.734h14.623v-2.699c0-1.205,0.98-2.185,2.185-2.185s2.185,0.98,2.185,2.185v4.884c0,1.205-0.98,2.185-2.185,2.185h-18.993
		c-1.205,0-2.185-0.98-2.185-2.185v-18.104c0-1.205,0.98-2.185,2.185-2.185h13.778c1.205,0,2.185,0.98,2.185,2.185
		C-16.408,157.89-17.388,158.871-18.594,158.871z M29.707,161.895H-0.418c-1.205,0-2.185-0.98-2.185-2.185s0.98-2.185,2.185-2.185
		h30.125c1.205,0,2.185,0.98,2.185,2.185S30.912,161.895,29.707,161.895z M-0.418,169.58h60.25c1.205,0,2.185,0.98,2.185,2.185
		s-0.98,2.185-2.185,2.185h-60.25c-1.205,0-2.185-0.98-2.185-2.185S-1.623,169.58-0.418,169.58z"/>
</g>
<path style="fill:#694B4B;" d="M87.93,214.476h-1.813c-10.99,0-19.931,8.941-19.931,19.931v7.716l1.679-2.645l0.112-0.158
	l0.355-0.339c0.017-0.013,0.034-0.027,0.054-0.04l0.082-0.05c0.023-0.015,0.046-0.03,0.07-0.042l0.098-0.047
	c0.019-0.009,0.038-0.02,0.081-0.036l0.316-0.097c0.035-0.007,0.07-0.011,0.127-0.019l0.056-0.009
	c0.061-0.007,0.122-0.009,0.195-0.009c0.165,0,16.517-0.119,23.962-10.413c0.413-0.571,1.145-0.858,1.841-0.717
	c0.7,0.143,1.254,0.686,1.413,1.389c0.019,0.083,2.018,8.31,8.487,9.781l0.069,0.02c0.036,0.009,0.073,0.018,0.108,0.029
	l0.074,0.027c0.032,0.012,0.063,0.023,0.099,0.039l0.154,0.076c0.028,0.016,0.055,0.033,0.095,0.059l0.051,0.032
	c0.029,0.02,0.056,0.041,0.107,0.082l0.033,0.026c0.025,0.021,0.05,0.044,0.094,0.086l0.034,0.033
	c0.023,0.023,0.043,0.047,0.068,0.076c0.016,0.018,0.033,0.036,0.051,0.059l1.71,2.385v-7.297
	C107.86,223.417,98.919,214.476,87.93,214.476z"/>
<path style="fill:#FBCB99;" d="M94.715,234.035l-0.545-1.077l-0.886,0.82c-6.775,6.273-16.209,7.933-21.23,8.364l-0.833,0.072
	v11.811c0,7.783,6.332,14.115,14.115,14.115h3.457c7.782,0,14.113-6.332,14.113-14.115v-12.196l-0.566-0.232
	C98.383,239.976,96.009,236.59,94.715,234.035z"/>
<path style="fill:#EDBA89;" d="M62.197,249.446c0,2.497,1.863,4.666,4.334,5.044l1.048,0.16v-10.408l-1.048,0.16
	C64.06,244.78,62.197,246.948,62.197,249.446z"/>
<g>
	<path style="fill:#FBCB99;" d="M88.794,271.781h-3.457c-1.076,0-2.173-0.103-3.259-0.305L81,271.275v5.776l5.982,5.826l6.148-6.379
		v-5.223l-1.077,0.201C90.966,271.678,89.87,271.781,88.794,271.781z"/>
	<path style="fill:#FBCB99;" d="M107.624,244.425l-1.075-0.197v10.436l1.075-0.197c2.425-0.446,4.185-2.557,4.185-5.02
		C111.81,246.982,110.049,244.87,107.624,244.425z"/>
</g>
<path style="fill:#6598CB;" d="M112.018,284.571c-0.026-0.009-0.064-0.023-0.094-0.035l-15.494-6.213l-8.096,8.4
	c-0.339,0.351-0.795,0.55-1.312,0.557c-0.477,0-0.929-0.184-1.27-0.516l-7.844-7.64c-0.054-0.052-0.101-0.107-0.147-0.164
	l-0.419-0.518l-15.576,6.1c-0.026,0.01-0.053,0.02-0.091,0.033c-0.405,0.142-9.914,3.606-9.914,15.606v13.95h70.186v-13.95
	C121.947,288.18,112.422,284.712,112.018,284.571z"/>
<path style="fill:#563B3B;" d="M70.556,234.407c0-10.56,8.257-19.223,18.652-19.885c-0.423-0.027-0.849-0.046-1.279-0.046h-1.813
	c-10.99,0-19.931,8.941-19.931,19.931v7.716l1.679-2.645l0.112-0.158l0.355-0.339c0.017-0.013,0.034-0.027,0.054-0.04l0.082-0.05
	c0.023-0.015,0.046-0.03,0.07-0.042l0.098-0.047c0.019-0.009,0.038-0.02,0.081-0.036l0.316-0.097
	c0.035-0.007,0.07-0.011,0.127-0.019l0.056-0.009c0.061-0.007,0.122-0.009,0.195-0.009c0.025,0,0.439-0.003,1.145-0.046
	L70.556,234.407L70.556,234.407z"/>
<g>
	<path style="fill:#EDBA89;" d="M75.592,254.024v-11.811l0.833-0.072c4.518-0.388,12.611-1.774,19.124-6.62
		c-0.317-0.514-0.594-1.015-0.833-1.488l-0.545-1.077l-0.886,0.82c-6.775,6.273-16.209,7.933-21.23,8.364l-0.833,0.072v11.811
		c0,7.783,6.332,14.115,14.115,14.115h3.457c0.153,0,0.305-0.007,0.457-0.012C81.678,267.885,75.592,261.654,75.592,254.024z"/>
	<path style="fill:#EDBA89;" d="M85.37,277.052v-5.271h-0.034c-1.076,0-2.173-0.103-3.259-0.305L81,271.275v5.776l5.982,5.826
		l2.116-2.195L85.37,277.052z"/>
	<path style="fill:#EDBA89;" d="M89.707,271.781h3.422v-0.506l-1.077,0.201c-0.933,0.174-1.873,0.27-2.802,0.294
		C89.403,271.775,89.555,271.781,89.707,271.781z"/>
</g>
<path style="fill:#4982AA;" d="M66.045,284.576c0.038-0.013,0.064-0.023,0.091-0.033l12.363-4.842l-0.592-0.576
	c-0.054-0.052-0.101-0.107-0.147-0.164l-0.419-0.518l-15.576,6.1c-0.026,0.01-0.053,0.02-0.091,0.033
	c-0.405,0.142-9.914,3.606-9.914,15.606v11.764h4.371v-11.764C56.131,288.183,65.64,284.718,66.045,284.576z"/>
<g>
	<path style="fill:#202121;" d="M29.707,162.441H-0.418c-1.509,0-2.732-1.223-2.732-2.732c0-1.509,1.223-2.732,2.732-2.732h30.125
		c1.509,0,2.732,1.223,2.732,2.732C32.438,161.219,31.215,162.441,29.707,162.441z"/>
	<path style="fill:#202121;" d="M59.832,174.497h-60.25c-1.509,0-2.732-1.223-2.732-2.732c0-1.509,1.223-2.732,2.732-2.732h60.25
		c1.509,0,2.732,1.223,2.732,2.732C62.563,173.274,61.34,174.497,59.832,174.497z"/>
	<path style="fill:#202121;" d="M29.707,212.053H-0.418c-1.509,0-2.732-1.223-2.732-2.732c0-1.509,1.223-2.732,2.732-2.732h30.125
		c1.509,0,2.732,1.223,2.732,2.732C32.438,210.83,31.215,212.053,29.707,212.053z"/>
	<path style="fill:#202121;" d="M59.168,224.109H-0.418c-1.509,0-2.732-1.223-2.732-2.732c0-1.509,1.223-2.732,2.732-2.732h59.586
		c1.509,0,2.732,1.223,2.732,2.732C61.9,222.886,60.677,224.109,59.168,224.109z"/>
	<path style="fill:#202121;" d="M29.707,261.665H-0.418c-1.509,0-2.732-1.223-2.732-2.732c0-1.509,1.223-2.732,2.732-2.732h30.125
		c1.509,0,2.732,1.223,2.732,2.732C32.438,260.442,31.215,261.665,29.707,261.665z"/>
	<path style="fill:#202121;" d="M58.741,273.721H-0.418c-1.509,0-2.732-1.223-2.732-2.732c0-1.509,1.223-2.732,2.732-2.732h59.159
		c1.509,0,2.732,1.223,2.732,2.732C61.473,272.498,60.25,273.721,58.741,273.721z"/>
	<path style="fill:#202121;" d="M113.551,280.284l-15.869-6.363v-3.485c4.371-2.377,7.687-6.452,9.069-11.332
		c5.304-0.028,9.611-4.349,9.611-9.659c0-3.191-1.557-6.025-3.949-7.785v-7.254c0-13.5-10.983-24.484-24.483-24.484h-1.813
		c-2.024,0-3.99,0.251-5.872,0.717v-14.796c0-1.509-1.223-2.732-2.732-2.732H69.4c-1.509,0-2.732,1.223-2.732,2.732
		s1.223,2.732,2.732,2.732h5.382v14.14c-7.168,3.761-12.254,10.968-13.038,19.408h-102.78v-33.548H60.258
		c1.509,0,2.732-1.223,2.732-2.732s-1.223-2.732-2.732-2.732H-43.768c-1.509,0-2.732,1.223-2.732,2.732v39.011
		c0,1.509,1.223,2.732,2.732,2.732H61.633v4.045c-0.451,0.328-0.872,0.694-1.259,1.093H-43.768c-1.509,0-2.732,1.223-2.732,2.732
		v39.011c0,1.509,1.223,2.732,2.732,2.732h95.011c-2.308,3.174-4.035,7.451-4.035,12.983v13.582c0,1.509,1.223,2.735,2.732,2.735
		h10.319c1.509,0,2.732-1.223,2.732-2.732s-1.223-2.732-2.732-2.732h-7.587v-10.854c0-11.359,8.939-14.619,9.304-14.747
		c0.042-0.014,0.084-0.029,0.126-0.046l14.953-5.856c0.068,0.084,0.14,0.166,0.219,0.243l7.844,7.639
		c0.51,0.497,1.194,0.775,1.906,0.775c0.014,0,0.029,0,0.043,0c0.727-0.011,1.419-0.312,1.924-0.836l7.671-7.959l14.925,5.985
		c0.038,0.015,0.092,0.035,0.13,0.049c0.381,0.133,9.321,3.393,9.321,14.752v10.855H98.57H79.179h-4.043h-3.393h-2.744
		c-1.509,0-2.732,1.223-2.732,2.732s1.223,2.732,2.732,2.732h2.744h3.393h4.043H98.57h25.198c1.509,0,2.732-1.25,2.732-2.758
		v-13.559C126.5,287.956,118.077,281.842,113.551,280.284z M88.794,267.229h-3.457c-7.281,0-13.204-5.923-13.204-13.204v-10.981
		c4.768-0.412,14.695-2.046,21.771-8.597c1.447,2.858,3.964,6.303,8.094,7.995v11.584
		C101.997,261.305,96.074,267.229,88.794,267.229z M66.669,245.302v8.288c-2.013-0.308-3.562-2.046-3.562-4.143
		C63.107,247.348,64.656,245.61,66.669,245.302z M107.46,253.57v-8.25c1.954,0.359,3.439,2.07,3.439,4.125
		C110.899,251.501,109.413,253.212,107.46,253.57z M86.117,215.387h1.813c10.488,0,19.02,8.533,19.02,19.02v4.461
		c-0.004-0.005-0.008-0.01-0.011-0.015c-0.025-0.035-0.05-0.069-0.077-0.103c-0.026-0.033-0.054-0.064-0.081-0.095
		c-0.031-0.036-0.062-0.071-0.095-0.105c-0.026-0.027-0.054-0.053-0.081-0.079c-0.037-0.035-0.074-0.07-0.113-0.102
		c-0.028-0.023-0.056-0.045-0.085-0.067c-0.04-0.032-0.081-0.063-0.124-0.093c-0.031-0.022-0.064-0.042-0.096-0.062
		c-0.042-0.026-0.083-0.052-0.126-0.076c-0.038-0.021-0.078-0.041-0.117-0.06c-0.039-0.019-0.077-0.039-0.117-0.056
		c-0.048-0.021-0.097-0.039-0.146-0.057c-0.034-0.013-0.068-0.026-0.103-0.038c-0.055-0.018-0.112-0.033-0.168-0.047
		c-0.025-0.007-0.05-0.015-0.075-0.021c-5.944-1.352-7.805-9.037-7.821-9.106c-0.237-1.047-1.065-1.858-2.117-2.073
		c-1.051-0.216-2.132,0.205-2.761,1.075c-7.187,9.936-23.006,10.036-23.225,10.036c0,0,0,0-0.001,0c-0.004,0-0.007,0-0.01,0
		c-0.094,0-0.187,0.005-0.279,0.014c-0.026,0.003-0.052,0.008-0.078,0.012c-0.065,0.008-0.13,0.016-0.193,0.029
		c-0.038,0.008-0.075,0.019-0.112,0.029c-0.05,0.012-0.101,0.023-0.149,0.038c-0.044,0.014-0.087,0.032-0.13,0.047
		c-0.04,0.015-0.081,0.027-0.12,0.044c-0.051,0.021-0.1,0.047-0.149,0.072c-0.029,0.015-0.06,0.027-0.089,0.043
		c-0.048,0.026-0.095,0.056-0.141,0.086c-0.028,0.017-0.057,0.033-0.084,0.051c-0.044,0.03-0.086,0.063-0.129,0.096
		c-0.027,0.02-0.055,0.039-0.081,0.061c-0.039,0.032-0.075,0.067-0.112,0.102c-0.027,0.025-0.056,0.048-0.082,0.074
		c-0.034,0.034-0.064,0.07-0.096,0.105c-0.027,0.029-0.055,0.058-0.08,0.089c-0.028,0.035-0.054,0.072-0.081,0.107
		c-0.025,0.034-0.053,0.067-0.076,0.102c-0.015,0.022-0.027,0.046-0.042,0.068v-4.583C67.096,223.919,75.629,215.387,86.117,215.387
		z M60.167,280.28c-0.906,0.311-1.97,0.808-3.09,1.498c-0.15-0.025-0.303-0.042-0.46-0.042h-97.654v-33.548h98.765
		c-0.054,0.412-0.084,0.831-0.084,1.257c0,5.327,4.334,9.66,9.661,9.66c0.024,0,0.047-0.003,0.071-0.004
		c1.382,4.88,4.698,8.956,9.071,11.334v3.468L60.167,280.28z M86.961,281.587l-5.05-4.919v-4.297
		c1.112,0.207,2.256,0.321,3.426,0.321h3.457c1.171,0,2.314-0.114,3.425-0.321v3.439c0,0.004,0,0.008,0,0.012v0.309L86.961,281.587z
		"/>
	<path style="fill:#202121;" d="M-13.378,177.521h-18.993c-1.509,0-2.732-1.223-2.732-2.732v-18.104
		c0-1.509,1.223-2.732,2.732-2.732h13.778c1.509,0,2.732,1.223,2.732,2.732c0,1.509-1.223,2.732-2.732,2.732H-29.64v12.641h13.53
		v-2.153c0-1.509,1.223-2.732,2.732-2.732s2.732,1.223,2.732,2.732v4.884C-10.647,176.298-11.87,177.521-13.378,177.521z"/>
	<path style="fill:#202121;" d="M-21,171.181c-0.006,0-0.012,0-0.018,0c-0.759-0.005-1.481-0.326-1.994-0.885l-4.791-5.218
		c-1.02-1.111-0.946-2.839,0.165-3.86c1.111-1.02,2.839-0.947,3.86,0.165l2.805,3.055l9.073-9.628
		c1.035-1.098,2.763-1.149,3.861-0.114c1.098,1.035,1.149,2.764,0.114,3.861l-11.088,11.764
		C-19.529,170.871-20.248,171.181-21,171.181z"/>
	<path style="fill:#202121;" d="M-13.378,227.133h-18.993c-1.509,0-2.732-1.223-2.732-2.732v-18.104
		c0-1.509,1.223-2.732,2.732-2.732h13.778c1.509,0,2.732,1.223,2.732,2.732c0,1.509-1.223,2.732-2.732,2.732H-29.64v12.641h13.53
		v-2.153c0-1.509,1.223-2.732,2.732-2.732s2.732,1.223,2.732,2.732v4.884C-10.647,225.91-11.87,227.133-13.378,227.133z"/>
	<path style="fill:#202121;" d="M-21,220.793c-0.006,0-0.012,0-0.018,0c-0.759-0.005-1.481-0.326-1.994-0.885l-4.791-5.219
		c-1.02-1.111-0.946-2.839,0.165-3.86c1.111-1.02,2.839-0.947,3.86,0.165l2.805,3.055l9.073-9.628
		c1.035-1.098,2.763-1.149,3.861-0.114c1.098,1.035,1.149,2.764,0.114,3.861l-11.087,11.765
		C-19.529,220.483-20.248,220.793-21,220.793z"/>
	<path style="fill:#202121;" d="M-13.378,276.746h-18.993c-1.509,0-2.732-1.223-2.732-2.732V255.91c0-1.509,1.223-2.732,2.732-2.732
		h13.778c1.509,0,2.732,1.223,2.732,2.732s-1.223,2.732-2.732,2.732H-29.64v12.641h13.53v-2.153c0-1.509,1.223-2.732,2.732-2.732
		s2.732,1.223,2.732,2.732v4.884C-10.647,275.523-11.87,276.746-13.378,276.746z"/>
	<path style="fill:#202121;" d="M-21,270.406c-0.006,0-0.012,0-0.018,0c-0.759-0.005-1.481-0.326-1.994-0.885l-4.791-5.219
		c-1.02-1.111-0.946-2.839,0.165-3.86c1.111-1.02,2.839-0.947,3.86,0.165l2.805,3.055l9.073-9.628
		c1.035-1.098,2.763-1.149,3.861-0.115c1.098,1.035,1.149,2.764,0.114,3.861l-11.087,11.765
		C-19.529,270.096-20.248,270.406-21,270.406z"/>
	<path style="fill:#202121;" d="M77.514,187.975H-43.768c-1.509,0-2.732-1.223-2.732-2.732v-39.011c0-1.509,1.223-2.732,2.732-2.732
		H60.258c1.509,0,2.732,1.223,2.732,2.732c0,1.509-1.223,2.732-2.732,2.732H-41.036v33.548H74.782v-33.548h-5.381
		c-1.509,0-2.732-1.223-2.732-2.732c0-1.509,1.223-2.732,2.732-2.732h8.113c1.509,0,2.732,1.223,2.732,2.732v39.011
		C80.245,186.752,79.022,187.975,77.514,187.975z"/>
</g>
</svg>
