<?xml version="1.0" encoding="iso-8859-1"?>
<!-- Generator: Adobe Illustrator 21.0.2, SVG Export Plug-In . SVG Version: 6.00 Build 0)  -->
<svg xmlns:xlink="http://www.w3.org/1999/xlink" version="1.1" id="Layer_1" xmlns="http://www.w3.org/2000/svg" x="0px" y="0px"
	 viewBox="-49 141 178 178" style="enable-background:new -49 141 178 178;" xml:space="preserve">
<path style="fill:#694B4B;" d="M-5.131,214.635h-1.788c-10.839,0-19.658,8.819-19.658,19.658v7.61l1.656-2.609l0.027-0.045
	c0.333-0.492,0.878-0.786,1.457-0.787c0.016,0,0.031,0,0.047-0.001l0.042-0.001c0.977-0.013,16.44-0.39,23.586-10.269
	c0.408-0.563,1.13-0.847,1.815-0.707c0.69,0.141,1.236,0.676,1.394,1.37c0.019,0.082,1.991,8.196,8.37,9.647l0.066,0.019
	c0.039,0.01,0.078,0.02,0.143,0.042l0.037,0.014c0.032,0.012,0.065,0.023,0.093,0.036l0.077,0.037
	c0.027,0.013,0.055,0.027,0.084,0.043c0.025,0.014,0.048,0.029,0.094,0.058l0.054,0.036c0.023,0.015,0.043,0.032,0.083,0.063
	l0.048,0.038c0.023,0.02,0.046,0.041,0.075,0.069c0.018,0.016,0.035,0.032,0.052,0.05c0.021,0.022,0.04,0.044,0.061,0.068
	c0.018,0.021,0.037,0.041,0.058,0.068c0.014,0.018,0.028,0.037,0.05,0.067l1.633,2.331v-7.245
	C14.526,223.454,5.708,214.635-5.131,214.635z"/>
<path style="fill:#EDBA89;" d="M-26.425,244.18l-0.329,0.063l-0.208,0.264c-0.327,0.416-0.818,0.665-1.347,0.684l-0.333,0.012
	l-0.245,0.226c-1.032,0.954-1.624,2.302-1.624,3.697c0,2.463,1.838,4.602,4.275,4.975l1.034,0.158v-10.262l-1.069,0.158
	C-26.323,244.162-26.374,244.17-26.425,244.18z"/>
<g>
	<path style="fill:#FBCB99;" d="M-4.279,271.155h-3.41c-1.062,0-2.143-0.101-3.215-0.301l-1.063-0.198v5.698l5.899,5.746
		l6.064-6.292v-5.152l-1.063,0.198C-2.136,271.053-3.218,271.155-4.279,271.155z"/>
	<path style="fill:#FBCB99;" d="M16.693,245.335l-0.223-0.195l-0.295-0.024c-0.47-0.038-0.9-0.256-1.21-0.615l-0.195-0.226
		l-0.292-0.064c-0.059-0.013-0.118-0.024-0.177-0.036l-1.067-0.205v10.302l1.06-0.195c2.392-0.439,4.128-2.522,4.128-4.951
		C18.422,247.676,17.792,246.294,16.693,245.335z"/>
	<path style="fill:#FBCB99;" d="M1.561,233.926l-0.538-1.062l-0.874,0.809c-6.683,6.188-15.988,7.825-20.939,8.251l-0.821,0.071
		v11.648c0,7.676,6.245,13.921,13.922,13.921h3.41c7.675,0,13.92-6.245,13.92-13.921v-12.028l-0.558-0.228
		C5.178,239.786,2.837,236.446,1.561,233.926z"/>
</g>
<path style="fill:#6598CB;" d="M18.634,283.772c-0.033-0.011-0.065-0.023-0.1-0.037l-15.282-6.129l-7.985,8.285
	c-0.335,0.347-0.784,0.542-1.294,0.55c-0.471,0-0.916-0.181-1.253-0.509l-7.735-7.534c-0.053-0.052-0.101-0.107-0.147-0.163
	l-0.413-0.511l-15.36,6.016c-0.027,0.01-0.054,0.02-0.092,0.033c-0.399,0.14-9.778,3.557-9.778,15.392v13.759h69.225v-13.758
	C28.42,287.198,18.728,283.804,18.634,283.772z"/>
<polygon style="fill:#F7971D;" points="89.359,180.607 116.136,180.607 102.748,167.218 89.359,153.829 "/>
<path style="fill:#F3E2C2;" d="M86.665,185.995c-1.488,0-2.694-1.206-2.694-2.694v-33.281H-2.525v60.268
	c12.093,1.304,21.542,11.571,21.542,24.006v7.154c2.36,1.736,3.895,4.531,3.895,7.678c0,5.237-4.248,9.499-9.479,9.527
	c-1.364,4.812-4.634,8.832-8.945,11.176v3.436l15.651,6.277c4.464,1.537,12.771,7.567,12.771,19.626v10.705h87.035V185.995H86.665z
	 M27.225,190.872H69.74c1.488,0,2.694,1.206,2.694,2.694s-1.206,2.694-2.694,2.694H27.225c-1.488,0-2.694-1.206-2.694-2.694
	S25.736,190.872,27.225,190.872z M91.451,270.12H27.225c-1.488,0-2.694-1.206-2.694-2.694s1.206-2.694,2.694-2.694h64.226
	c1.488,0,2.694,1.206,2.694,2.694C94.145,268.914,92.939,270.12,91.451,270.12z M91.451,251.655H27.225
	c-1.488,0-2.694-1.206-2.694-2.694c0-1.488,1.206-2.694,2.694-2.694h64.226c1.488,0,2.694,1.206,2.694,2.694
	C94.145,250.449,92.939,251.655,91.451,251.655z M91.451,233.19H27.225c-1.488,0-2.694-1.206-2.694-2.694
	c0-1.488,1.206-2.694,2.694-2.694h64.226c1.488,0,2.694,1.206,2.694,2.694C94.145,231.984,92.939,233.19,91.451,233.19z
	 M91.451,214.725H27.225c-1.488,0-2.694-1.206-2.694-2.694c0-1.488,1.206-2.694,2.694-2.694h64.226c1.488,0,2.694,1.206,2.694,2.694
	C94.145,213.519,92.939,214.725,91.451,214.725z"/>
<path style="fill:#563B3B;" d="M-22.266,234.293c0-10.415,8.143-18.96,18.397-19.613c-0.417-0.027-0.837-0.045-1.262-0.045h-1.788
	c-10.839,0-19.658,8.819-19.658,19.658v7.61l1.656-2.609l0.027-0.045c0.333-0.492,0.878-0.786,1.457-0.787
	c0.016,0,0.031,0,0.047-0.001l0.042-0.001c0.128-0.002,0.507-0.01,1.082-0.045L-22.266,234.293L-22.266,234.293z"/>
<g>
	<path style="fill:#EDBA89;" d="M-3.378,271.155h3.376v-0.499l-1.063,0.198c-0.921,0.172-1.848,0.266-2.764,0.291
		C-3.678,271.148-3.528,271.155-3.378,271.155z"/>
	<path style="fill:#EDBA89;" d="M-7.655,276.353v-5.198h-0.033c-1.062,0-2.143-0.101-3.215-0.301l-1.063-0.198v5.698l5.899,5.746
		l2.087-2.166L-7.655,276.353z"/>
	<path style="fill:#EDBA89;" d="M-17.299,253.642v-11.648l0.821-0.071c4.456-0.383,12.438-1.749,18.861-6.529
		c-0.312-0.507-0.586-1.001-0.822-1.468l-0.538-1.062l-0.874,0.809c-6.683,6.188-15.988,7.825-20.939,8.251l-0.821,0.071v11.648
		c0,7.676,6.245,13.921,13.922,13.921h3.41c0.151,0,0.301-0.007,0.45-0.011C-11.296,267.312-17.299,261.167-17.299,253.642z"/>
</g>
<path style="fill:#4982AA;" d="M-26.716,283.775c0.038-0.013,0.065-0.023,0.092-0.033l12.192-4.775l-0.582-0.567
	c-0.053-0.052-0.101-0.107-0.147-0.163l-0.413-0.511l-15.36,6.016c-0.027,0.01-0.054,0.02-0.092,0.033
	c-0.399,0.14-9.778,3.557-9.778,15.392v11.603h4.311v-11.603C-36.494,287.332-27.115,283.914-26.716,283.775z"/>
<path style="fill:#FBD7B1;" d="M24.45,279.541l-15.651-6.277v-3.436c4.311-2.344,7.581-6.364,8.945-11.176
	c4.365-0.023,8.043-2.995,9.142-7.02c-1.327-0.167-2.355-1.298-2.355-2.671c0-1.342,0.981-2.451,2.266-2.657
	c-0.612-1.967-1.845-3.663-3.469-4.857v-7.154c0-12.435-9.449-22.702-21.542-24.006v-60.268h-4.311v60.268
	c12.093,1.304,21.542,11.571,21.542,24.006v7.154c2.36,1.736,3.895,4.531,3.895,7.678c0,5.237-4.248,9.499-9.479,9.527
	c-1.364,4.812-4.634,8.832-8.945,11.176v3.436l15.651,6.277c4.464,1.537,12.771,7.567,12.771,19.626v10.705h4.311v-10.705
	C37.221,287.108,28.914,281.079,24.45,279.541z"/>
<g>
	<path style="fill:#202121;" d="M125.33,183.209c-0.001-0.03-0.003-0.06-0.004-0.09c-0.008-0.115-0.02-0.229-0.042-0.341
		c0-0.001,0-0.003,0-0.004c-0.023-0.114-0.055-0.225-0.092-0.335c-0.009-0.028-0.019-0.056-0.03-0.084
		c-0.039-0.103-0.082-0.205-0.133-0.302c-0.003-0.006-0.005-0.013-0.009-0.018c-0.055-0.102-0.118-0.2-0.186-0.295
		c-0.018-0.024-0.035-0.048-0.054-0.073c-0.072-0.094-0.148-0.186-0.233-0.271l-20.793-20.793L88.57,145.42
		c-0.085-0.085-0.177-0.162-0.272-0.234c-0.024-0.018-0.047-0.036-0.071-0.053c-0.095-0.068-0.193-0.131-0.296-0.186
		c-0.006-0.003-0.013-0.006-0.019-0.009c-0.097-0.051-0.199-0.094-0.301-0.133c-0.028-0.011-0.057-0.021-0.086-0.031
		c-0.109-0.037-0.219-0.069-0.332-0.092c-0.005-0.001-0.01-0.001-0.015-0.002c-0.108-0.021-0.218-0.033-0.328-0.041
		c-0.033-0.002-0.065-0.004-0.098-0.005c-0.029-0.001-0.057-0.005-0.087-0.005H-5.219c-1.488,0-2.694,1.206-2.694,2.694v62.845
		c-12.869,0.524-23.177,11.151-23.177,24.146v7.136c-2.384,1.735-3.939,4.546-3.939,7.713c0,5.258,4.278,9.535,9.537,9.535
		c0.024,0,0.047-0.003,0.071-0.004c1.364,4.82,4.64,8.845,8.957,11.192v3.427l-16.078,6.297
		c-4.465,1.533-12.793,7.568-12.793,19.648v13.41c0,1.488,1.206,2.697,2.694,2.697h11.918c1.488,0,2.694-1.206,2.694-2.694
		c0-1.488-1.206-2.694-2.694-2.694h-9.224v-10.719c0-11.219,8.828-14.437,9.188-14.563c0.042-0.014,0.083-0.029,0.125-0.045
		l14.766-5.783c0.067,0.083,0.138,0.165,0.217,0.241l7.744,7.544c0.503,0.49,1.178,0.764,1.88,0.764c0.014,0,0.028,0,0.043,0
		c0.717-0.011,1.4-0.308,1.897-0.824l7.574-7.86l14.739,5.911c0.048,0.019,0.096,0.037,0.145,0.053
		c0.092,0.031,9.189,3.219,9.189,14.563v10.719H5.376h-22.538h-4.102c-1.488,0-2.694,1.206-2.694,2.694s1.206,2.694,2.694,2.694
		h4.102H5.376h24.879c0.259,0,0.508-0.04,0.745-0.109h91.64c1.488,0,2.694-1.206,2.694-2.694V183.301
		C125.334,183.27,125.331,183.24,125.33,183.209z M89.359,153.83l8.427,8.428c0.001,0.001,0.003,0.002,0.004,0.004l2.152,2.152
		l9.269,9.269c0.001,0.001,0.002,0.002,0.003,0.004l6.749,6.749l0.172,0.172H89.359L89.359,153.83L89.359,153.83z M-6.919,215.533
		h1.79c10.357,0,18.782,8.426,18.782,18.783v4.413c-0.006-0.009-0.013-0.017-0.019-0.026c-0.023-0.032-0.047-0.064-0.071-0.095
		c-0.027-0.034-0.056-0.067-0.085-0.1c-0.029-0.033-0.059-0.066-0.089-0.098c-0.028-0.028-0.056-0.055-0.085-0.083
		c-0.035-0.033-0.07-0.065-0.106-0.096c-0.029-0.024-0.059-0.047-0.089-0.071c-0.038-0.03-0.077-0.06-0.117-0.087
		c-0.033-0.023-0.066-0.043-0.1-0.065c-0.039-0.025-0.078-0.049-0.119-0.072c-0.04-0.022-0.081-0.042-0.122-0.062
		c-0.036-0.018-0.072-0.036-0.11-0.053c-0.049-0.022-0.099-0.04-0.15-0.059c-0.032-0.012-0.064-0.024-0.096-0.035
		c-0.056-0.018-0.113-0.033-0.171-0.048c-0.024-0.006-0.047-0.014-0.071-0.02c-5.871-1.335-7.709-8.925-7.725-8.993
		c-0.233-1.032-1.05-1.832-2.088-2.044c-1.037-0.213-2.103,0.202-2.723,1.06c-7.097,9.812-22.717,9.91-22.933,9.91
		c0,0-0.001,0-0.001,0c-0.004,0-0.007,0-0.01,0c-0.093,0-0.184,0.005-0.275,0.014c-0.027,0.003-0.052,0.009-0.079,0.012
		c-0.063,0.008-0.126,0.016-0.188,0.029c-0.041,0.008-0.079,0.02-0.119,0.031c-0.046,0.011-0.093,0.022-0.138,0.036
		c-0.048,0.015-0.094,0.034-0.142,0.052c-0.035,0.013-0.071,0.024-0.105,0.038c-0.056,0.024-0.11,0.051-0.163,0.078
		c-0.024,0.012-0.048,0.022-0.071,0.035c-0.056,0.03-0.109,0.064-0.162,0.098c-0.02,0.013-0.04,0.023-0.06,0.036
		c-0.052,0.035-0.102,0.074-0.152,0.113c-0.018,0.014-0.037,0.027-0.055,0.041c-0.047,0.038-0.091,0.08-0.135,0.122
		c-0.018,0.017-0.038,0.033-0.056,0.051c-0.042,0.041-0.08,0.086-0.119,0.13c-0.018,0.02-0.038,0.04-0.055,0.061
		c-0.036,0.044-0.069,0.09-0.102,0.136c-0.017,0.024-0.036,0.046-0.053,0.071c-0.017,0.024-0.031,0.051-0.047,0.076v-4.535
		C-25.703,223.959-17.276,215.533-6.919,215.533z M14.151,245.088c0.053,0.01,0.105,0.02,0.158,0.031
		c0.449,0.52,1.093,0.866,1.819,0.925c0.871,0.761,1.425,1.876,1.425,3.121c0,2.032-1.47,3.723-3.401,4.076V245.088z
		 M-29.641,249.165c0-1.204,0.518-2.286,1.34-3.044c0.821-0.029,1.547-0.423,2.022-1.027c0.053-0.01,0.107-0.016,0.16-0.024v8.19
		C-28.11,252.956-29.641,251.239-29.641,249.165z M-20.731,253.687v-10.841c4.705-0.404,14.511-2.022,21.5-8.496
		c1.429,2.823,3.915,6.227,7.994,7.896v11.441c0,7.19-5.85,13.04-13.04,13.04H-7.69C-14.881,266.727-20.731,260.877-20.731,253.687z
		 M-6.086,280.905l-4.99-4.86v-4.247c1.098,0.205,2.229,0.317,3.385,0.317h3.413c1.157,0,2.287-0.112,3.385-0.317v3.399
		c0,0.004,0,0.008,0,0.012v0.307L-6.086,280.905z M32.95,309.872v-10.61c0-12.071-8.315-18.106-12.783-19.645l-15.671-6.285v-3.443
		c4.317-2.347,7.592-6.371,8.956-11.19c5.236-0.026,9.488-4.293,9.488-9.534c0-3.151-1.537-5.948-3.899-7.685v-7.164
		c0-12.448-9.459-22.725-21.566-24.029v-60.267h86.496v33.281c0,1.488,1.206,2.694,2.694,2.694h33.281v123.877H32.95z"/>
	<path style="fill:#202121;" d="M27.225,196.26H69.74c1.488,0,2.694-1.206,2.694-2.694s-1.206-2.694-2.694-2.694H27.225
		c-1.488,0-2.694,1.206-2.694,2.694S25.736,196.26,27.225,196.26z"/>
	<path style="fill:#202121;" d="M91.451,209.336H27.225c-1.488,0-2.694,1.206-2.694,2.694c0,1.488,1.206,2.694,2.694,2.694h64.226
		c1.488,0,2.694-1.206,2.694-2.694C94.145,210.542,92.939,209.336,91.451,209.336z"/>
	<path style="fill:#202121;" d="M91.451,227.801H27.225c-1.488,0-2.694,1.206-2.694,2.694c0,1.488,1.206,2.694,2.694,2.694h64.226
		c1.488,0,2.694-1.206,2.694-2.694C94.145,229.007,92.939,227.801,91.451,227.801z"/>
	<path style="fill:#202121;" d="M91.451,246.267H27.225c-1.488,0-2.694,1.206-2.694,2.694s1.206,2.694,2.694,2.694h64.226
		c1.488,0,2.694-1.206,2.694-2.694S92.939,246.267,91.451,246.267z"/>
	<path style="fill:#202121;" d="M91.451,264.732H27.225c-1.488,0-2.694,1.206-2.694,2.694s1.206,2.694,2.694,2.694h64.226
		c1.488,0,2.694-1.206,2.694-2.694S92.939,264.732,91.451,264.732z"/>
</g>
</svg>
