<svg xmlns:xlink="http://www.w3.org/1999/xlink" version="1.1" id="Layer_1" class="svgcenter" xmlns="http://www.w3.org/2000/svg" x="0px" y="0px" width="60%" viewBox="0 0 284.091 339.589" enable-background="new 0 0 284.091 339.589" xml:space="preserve">
                  <circle id="bgcircle" opacity=".5" class="mgbcircle" fill="#F3F3Ff" cx="141.331" cy="193.348" r="132" />
                  <g class="mgbox">
                     <g id="upbox">
                        <polygon fill="#457E47" points="70.676,160.183 142.176,144.35 142.176,177.433   " />
                        <polygon fill="#569D59" points="213.676,160.433 142.176,144.35 142.176,177.433  " />
                     </g>
                  </g>
                  <g id="ico2" class="io2">
                     <g>
                        <path fill="#569D59" d="M103.206,112.603c0,1.245-1.019,2.263-2.263,2.263h-0.502c-1.245,0-2.263-1.019-2.263-2.263V88.462
                           c0-1.245,1.019-2.263,2.263-2.263h0.502c1.245,0,2.263,1.019,2.263,2.263V112.603z" />
                     </g>
                     <g>
                        <path fill="#569D59" d="M88.621,103.046c-1.245,0-2.263-1.019-2.263-2.263v-0.502c0-1.245,1.019-2.263,2.263-2.263h24.141
                           c1.245,0,2.263,1.019,2.263,2.263v0.502c0,1.245-1.019,2.263-2.263,2.263H88.621z" />
                     </g>
                  </g>
                  <g id="ico1" class="io1">
                     <g>
                        <path fill="#569D59" d="M175.176,53.574c0,1.245-1.019,2.263-2.263,2.263h-0.502c-1.245,0-2.263-1.019-2.263-2.263V29.433
                           c0-1.245,1.019-2.263,2.263-2.263h0.502c1.245,0,2.263,1.019,2.263,2.263V53.574z" />
                     </g>
                     <g>
                        <path fill="#569D59" d="M160.591,44.018c-1.245,0-2.263-1.019-2.263-2.263v-0.502c0-1.245,1.019-2.263,2.263-2.263h24.141
                           c1.245,0,2.263,1.019,2.263,2.263v0.502c0,1.245-1.019,2.263-2.263,2.263H160.591z" />
                     </g>
                  </g>
                  <g id="ico3" class="io3">
                     <g>
                        <path fill="#EF5350" d="M138.159,96.76c-0.512,0.469-1.315,0.435-1.785-0.078l-0.19-0.207c-0.469-0.512-0.435-1.315,0.078-1.785
                           l9.932-9.106c0.512-0.469,1.315-0.435,1.785,0.078l0.19,0.207c0.469,0.512,0.435,1.315-0.078,1.785L138.159,96.76z" />
                     </g>
                     <g>
                        <path fill="#EF5350" d="M136.589,87.155c-0.469-0.512-0.435-1.315,0.078-1.785l0.207-0.19c0.512-0.469,1.315-0.435,1.785,0.078
                           l9.106,9.932c0.469,0.512,0.435,1.315-0.078,1.785l-0.207,0.19c-0.512,0.469-1.315,0.435-1.785-0.078L136.589,87.155z" />
                     </g>
                  </g>
                  <g id="ico4" class="io4">
                     <g>
                        <path fill="#EF5350" d="M122.283,54.937c-0.512,0.469-1.315,0.435-1.785-0.078l-0.19-0.207c-0.469-0.512-0.435-1.315,0.078-1.785
                           l9.932-9.106c0.512-0.469,1.315-0.435,1.785,0.078l0.19,0.207c0.469,0.512,0.435,1.315-0.078,1.785L122.283,54.937z" />
                     </g>
                     <g>
                        <path fill="#EF5350" d="M120.713,45.332c-0.469-0.512-0.435-1.315,0.078-1.785l0.207-0.19c0.512-0.469,1.315-0.435,1.785,0.078
                           l9.106,9.932c0.469,0.512,0.435,1.315-0.078,1.785l-0.207,0.19c-0.512,0.469-1.315,0.435-1.785-0.078L120.713,45.332z" />
                     </g>
                  </g>
                  <circle id="ico5" class="io1" fill="#659DCD" cx="139.331" cy="15.017" r="4" />
                  <circle id="ico6" class="io2" fill="#659DCD" cx="172.662" cy="76.684" r="4" />
                  <circle id="ico7" class="io3" fill="#659DCD" cx="195.662" cy="114.866" r="4" />
                  <g class="mgbox">
                     <g id="downbx">
                        <polygon fill="#73D278" points="142.176,264.683 70.676,248.683 70.676,160.183 142.176,177.183   " />
                        <polygon fill="#66BB6A" points="142.176,264.933 213.676,248.933 213.676,160.433 142.176,177.433     " />
                     </g>
                  </g>
               </svg>
