<?xml version="1.0" encoding="utf-8"?>
<!-- Generator: Adobe Illustrator 21.1.0, SVG Export Plug-In . SVG Version: 6.00 Build 0)  -->
<svg xmlns:xlink="http://www.w3.org/1999/xlink" version="1.1" id="Layer_1" xmlns="http://www.w3.org/2000/svg" x="0px" y="0px"
	 viewBox="0 0 565.5 95" style="enable-background:new 0 0 565.5 95;" xml:space="preserve">
<style type="text/css">
	.st0{fill:url(#SVGID_1_);}
	.st1{fill:url(#SVGID_2_);}
	.st2{fill:url(#SVGID_3_);}
	.st3{fill:url(#SVGID_4_);}
	.st4{fill:url(#SVGID_5_);}
	.st5{fill:url(#SVGID_6_);}
	.st6{fill:url(#SVGID_7_);}
	.st7{fill:url(#SVGID_8_);}
	.st8{fill:url(#SVGID_9_);}
	.st9{fill:#084A93;}
	.st10{fill:#7465A5;}
	.st11{fill:#282851;}
	.st12{fill:#F03795;}
</style>
<g>
	
		<linearGradient id="SVGID_1_" gradientUnits="userSpaceOnUse" x1="-1691.7532" y1="541.7509" x2="-1691.4534" y2="541.7509" gradientTransform="matrix(57.834 0 0 -57.834 97960.8281 31341.5039)">
		<stop  offset="0" style="stop-color:#90215B"/>
		<stop  offset="4.469211e-04" style="stop-color:#95215D"/>
		<stop  offset="3.233638e-03" style="stop-color:#B01F6A"/>
		<stop  offset="6.438962e-03" style="stop-color:#C61D74"/>
		<stop  offset="1.018097e-02" style="stop-color:#D71C7C"/>
		<stop  offset="1.480953e-02" style="stop-color:#E21C82"/>
		<stop  offset="2.130132e-02" style="stop-color:#E91B85"/>
		<stop  offset="3.932600e-02" style="stop-color:#EB1B86"/>
		<stop  offset="0.4382" style="stop-color:#EB3A93"/>
		<stop  offset="1" style="stop-color:#EB3A93"/>
	</linearGradient>
	<path class="st0" d="M137.3,6.5c0.5,1.4-2.9,4-7.7,5.8c-4.7,1.9-9,2.3-9.6,0.9c-0.5-1.4,2.9-4,7.7-5.8S136.8,5.2,137.3,6.5z"/>
	
		<radialGradient id="SVGID_2_" cx="-1693.4481" cy="542.2316" r="0.2997" gradientTransform="matrix(56.8858 0 0 -56.8858 96502.6953 30873.7559)" gradientUnits="userSpaceOnUse">
		<stop  offset="0" style="stop-color:#FFF597"/>
		<stop  offset="4.935116e-02" style="stop-color:#FFF283"/>
		<stop  offset="0.1648" style="stop-color:#FFEB5B"/>
		<stop  offset="0.2839" style="stop-color:#FFE63A"/>
		<stop  offset="0.4055" style="stop-color:#FFE121"/>
		<stop  offset="0.5308" style="stop-color:#FFDE0E"/>
		<stop  offset="0.6621" style="stop-color:#FFDD04"/>
		<stop  offset="0.809" style="stop-color:#FFDC00"/>
		<stop  offset="1" style="stop-color:#F1BD39"/>
	</radialGradient>
	<path class="st1" d="M181.7,39.2c-0.2,3.3-1.6,5.9-4,7.1c-4.6,2.3-11.1-1.6-14.7-8.6c-2.2-4.3-2.7-8.8-1.8-12.2l0,0
		c0.4,0.4,0.8,0.7,1.2,1.1C169.9,33.6,177.5,38.4,181.7,39.2L181.7,39.2z"/>
	
		<linearGradient id="SVGID_3_" gradientUnits="userSpaceOnUse" x1="-1696.3005" y1="545.0862" x2="-1696.0009" y2="545.0862" gradientTransform="matrix(68.4283 0 0 -68.4283 116236.1016 37329.043)">
		<stop  offset="0" style="stop-color:#FFDC00"/>
		<stop  offset="0.1823" style="stop-color:#FDD704"/>
		<stop  offset="0.4014" style="stop-color:#F8C811"/>
		<stop  offset="0.6395" style="stop-color:#EFB025"/>
		<stop  offset="0.8894" style="stop-color:#E28E41"/>
		<stop  offset="1" style="stop-color:#DC7D50"/>
	</linearGradient>
	<path class="st2" d="M181.7,39.2c-4.1-0.7-11.7-5.5-19.3-12.5c-0.4-0.4-0.8-0.7-1.2-1.1l0,0c0.6-2.2,1.8-3.9,3.6-4.7
		c4.6-2.3,11.1,1.6,14.7,8.6C181.2,32.7,181.9,36.2,181.7,39.2L181.7,39.2z"/>
	
		<linearGradient id="SVGID_4_" gradientUnits="userSpaceOnUse" x1="-1716.306" y1="538.234" x2="-1716.0065" y2="538.234" gradientTransform="matrix(33.8146 -58.5686 -58.5686 -33.8146 89722.6953 -82292.9219)">
		<stop  offset="0" style="stop-color:#EE5B53"/>
		<stop  offset="5.618000e-03" style="stop-color:#EE5B53"/>
		<stop  offset="0.2059" style="stop-color:#E74D49"/>
		<stop  offset="0.7144" style="stop-color:#D62F32"/>
		<stop  offset="1" style="stop-color:#D0232A"/>
	</linearGradient>
	<path class="st3" d="M181.7,39.2c0.2-3-0.5-6.4-2.2-9.8c-3.6-7-10.1-10.9-14.7-8.6c-1.8,0.9-3,2.6-3.6,4.7l0,0l0,0
		c-9.1-8.8-14.7-17.5-12.4-19.9c0.5-0.5,1.3-0.7,2.5-0.6l0,0c16.1,3,29.1,15,33.4,30.7l0,0c0.4,1.3,0.3,2.3-0.3,2.9
		C183.9,39.2,182.9,39.4,181.7,39.2L181.7,39.2z"/>
	
		<radialGradient id="SVGID_5_" cx="-1704.1066" cy="552.5772" r="0.2996" gradientTransform="matrix(142.4606 0.1776 0.1709 -137.0793 242814.0938 76108.9141)" gradientUnits="userSpaceOnUse">
		<stop  offset="0" style="stop-color:#CBC3E0"/>
		<stop  offset="3.088590e-03" style="stop-color:#CBC3E0"/>
		<stop  offset="6.703170e-02" style="stop-color:#BDB5D8"/>
		<stop  offset="0.3051" style="stop-color:#8C86BD"/>
		<stop  offset="0.4868" style="stop-color:#6E69AC"/>
		<stop  offset="0.5892" style="stop-color:#635EA6"/>
		<stop  offset="1" style="stop-color:#635EA6"/>
	</radialGradient>
	<path class="st4" d="M142.8,72.1c10.7-0.6,19.1-9.4,19.1-20.2c0-11.2-9-20.2-20.2-20.2c-3.9,0-7.6,1.1-10.7,3
		c1.9,2.7,3.8,6,5.5,9.9C139.9,52.4,143.3,63.1,142.8,72.1z"/>
	
		<radialGradient id="SVGID_6_" cx="-1704.4526" cy="552.9674" r="0.2996" gradientTransform="matrix(153.7598 0 0 -153.7598 262200.5312 85064.25)" gradientUnits="userSpaceOnUse">
		<stop  offset="0" style="stop-color:#57AEDC"/>
		<stop  offset="0.1295" style="stop-color:#54A5D6"/>
		<stop  offset="0.3405" style="stop-color:#4B8DC5"/>
		<stop  offset="0.5955" style="stop-color:#3D67AA"/>
		<stop  offset="0.9157" style="stop-color:#1F3D79"/>
		<stop  offset="1" style="stop-color:#1F3D79"/>
	</radialGradient>
	<path class="st5" d="M127.7,79.9c3.2-1.2,8.6-2.2,14.4-2.8c0.2-0.7,0.3-1.4,0.4-2.2c0.1-0.9,0.2-1.9,0.3-2.9c-0.4,0-0.7,0-1.1,0
		c-11.2,0-20.2-9.1-20.2-20.2c0-7.3,3.8-13.6,9.6-17.2c-4.4-6.2-8.9-9.6-11.2-10.9c-4.1-2.4-10.5-4-14.6,4.1
		c-2.9,5.8-4.5,12.3-4.5,19.2c0,17,9.9,31.7,24.3,38.7C122,84.3,120.9,82.5,127.7,79.9z"/>
	
		<radialGradient id="SVGID_7_" cx="-1701.5059" cy="550.588" r="0.2996" gradientTransform="matrix(110.2219 0 0 -110.2219 187669.1562 60727.0039)" gradientUnits="userSpaceOnUse">
		<stop  offset="0" style="stop-color:#5492C8"/>
		<stop  offset="9.058790e-02" style="stop-color:#518CC4"/>
		<stop  offset="0.6876" style="stop-color:#3E65AB"/>
		<stop  offset="1" style="stop-color:#3756A1"/>
	</radialGradient>
	<path class="st6" d="M121.5,51.9c0,11.2,9,20.2,20.2,20.2c0.4,0,0.7,0,1.1,0c0.5-9-2.9-19.7-6.3-27.5c-1.7-3.9-3.6-7.1-5.5-9.9
		C125.3,38.3,121.5,44.7,121.5,51.9z"/>
	
		<linearGradient id="SVGID_8_" gradientUnits="userSpaceOnUse" x1="-1728.5258" y1="536.4202" x2="-1728.226" y2="536.4202" gradientTransform="matrix(0 -49.0138 -49.0138 0 26439.2812 -84631.4688)">
		<stop  offset="0" style="stop-color:#00662E"/>
		<stop  offset="6.861436e-02" style="stop-color:#007037"/>
		<stop  offset="0.2959" style="stop-color:#008B4E"/>
		<stop  offset="0.5262" style="stop-color:#009E5F"/>
		<stop  offset="0.7595" style="stop-color:#00AA6A"/>
		<stop  offset="1" style="stop-color:#00AE6D"/>
	</linearGradient>
	<path class="st7" d="M162.3,77c-4.9-0.8-12.9-0.6-20.2,0.1c-2.7,12.1-10.1,11.5-14.3,9.9c-1-0.4-1.8-0.8-2.8-1.2l0,0
		c5.6,2.7,11.9,4.2,18.5,4.2c9.1,0,17.4-2.8,24.4-7.6C170.6,80.6,170.9,78.4,162.3,77z"/>
	
		<linearGradient id="SVGID_9_" gradientUnits="userSpaceOnUse" x1="-1719.6342" y1="531.241" x2="-1719.3346" y2="531.241" gradientTransform="matrix(16.7277 -45.959 -45.959 -16.7277 53310.4922 -70058.3047)">
		<stop  offset="0" style="stop-color:#00585C"/>
		<stop  offset="0.1067" style="stop-color:#00585C"/>
		<stop  offset="0.218" style="stop-color:#007577"/>
		<stop  offset="0.3439" style="stop-color:#008F90"/>
		<stop  offset="0.4568" style="stop-color:#009F9F"/>
		<stop  offset="0.5449" style="stop-color:#00A5A4"/>
		<stop  offset="1" style="stop-color:#00B9C4"/>
	</linearGradient>
	<path class="st8" d="M142.1,77.1c-5.8,0.6-11.1,1.6-14.4,2.8c-6.8,2.5-5.7,4.3-2.8,5.8c0.9,0.4,1.9,0.9,2.8,1.2
		C132,88.7,139.4,89.2,142.1,77.1z"/>
	<path class="st9" d="M43.5,49.9c7-4.2,5.6-16.7-6.9-16.7H9.5c-2.1,0-3.8,1.7-3.8,3.8v29.6c0,2.1,1.7,3.8,3.8,3.8h23.6
		C51.9,70.4,54.2,53.7,43.5,49.9z M19.8,39h14.6c8.3,0,7.9,9-1.1,9H19.8V39z M31.5,64.2H19.8V53.9h15.1
		C43.4,53.9,43.5,64.2,31.5,64.2z"/>
	<path class="st9" d="M91.1,33.2H51.8c-1.7,0-3.5,1.4-3.5,3.1c0,1.7,1.8,3.1,3.5,3.1h13.1v27.2c0,2.1,1.7,3.8,3.8,3.8h6.1
		c2.1,0,3.8-1.8,3.8-3.8V39.4h12.5c1.7,0,3.5-1.4,3.5-3.1C94.6,34.6,92.8,33.2,91.1,33.2z"/>
</g>
<rect x="201" y="18" class="st10" width="1" height="63"/>
<g>
	<g>
		<g>
			<path class="st11" d="M314.2,52.4c0,1.6-0.8,5.4-3.7,8.2c-1.6,1.6-4.7,3.6-9.5,3.6c-0.1,0-0.2,0-0.4-0.1
				c-3.9-0.1-7.2-1.1-9.9-2.9c-2.2-1.6-3.4-3.4-3.9-4.3c-0.3-0.5-0.5-1.1-0.5-1.6c0-1.7,1.4-3,3-3c1.2,0,2.3,0.7,2.7,1.9
				c0.2,0.4,0.9,1.4,2.2,2.3c1.7,1.1,3.8,1.7,6.4,1.8c7.2,0.1,7.5-5.8,7.5-5.9c0-1.4-1-3.1-2.3-4.1c-1.6-1.3-3.7-1.5-6.1-1.8
				c-3.3-0.4-7-0.8-10.1-4c-2.9-3-4-7.1-2.7-11.1c1.3-4.2,4.9-7.5,9.3-8.4c1.1-0.3,2.3-0.4,3.6-0.4c4.1,0.1,7.6,1.2,10.3,3.4
				c2.2,1.7,3.2,3.6,3.6,4.4c0.2,0.4,0.4,0.8,0.4,1.4c0,1.6-1.3,2.9-2.9,2.9c-1.2,0-2.3-0.7-2.8-1.8h-0.1c0-0.1-0.4-1.1-1.7-2.2
				c-1.2-1-3.4-2.1-6.9-2.2c-0.8-0.1-1.6,0-2.3,0.2c-2.3,0.5-4.2,2.2-4.9,4.4c-0.4,1.1-0.6,3.2,1.3,5.2c1.5,1.5,3.4,1.9,6.6,2.2
				c2.9,0.4,6.2,0.7,9.1,3C312.4,45.8,314.2,49.3,314.2,52.4z"/>
			<path class="st11" d="M348.3,49.7v11.8c0,1.7-1.3,3-3,3c-1.2,0-2.9-1.3-2.9-3c-2.6,2.2-5.5,3-8.9,3c-8.5,0-15.2-6.3-15.2-14.8
				c0-8.5,6.7-15.2,15.2-15.2C342,34.5,348.3,41.2,348.3,49.7z M342.4,49.7c0-5-3.8-9.3-8.9-9.3c-5,0-9.3,4.3-9.3,9.3
				c0,5,4.3,8.9,9.3,8.9C338.6,58.6,342.4,54.7,342.4,49.7z"/>
			<path class="st11" d="M382.1,49.4v12.1c0,1.7-1.3,3-3,3c-1.6,0-2.9-1.3-2.9-3V49.4c0-5-4.1-9.1-9.1-9.1c-5,0-9.1,4.1-9.1,9.1
				v12.1c0,1.7-1.3,3-3,3c-1.6,0-2.9-1.3-2.9-3V49.4c0-8.4,6.8-15.1,15.1-15.1C375.3,34.4,382.1,41.1,382.1,49.4z"/>
			<path class="st11" d="M415.8,64.5c0,8.3-6.8,15.1-15.1,15.1c-5.8,0-11-3.2-13.6-8.5c-0.7-1.5-0.1-3.2,1.4-4
				c1.4-0.7,3.2-0.1,4,1.3c1.6,3.2,4.7,5.2,8.2,5.2c5,0,9-4,9.1-9c0-0.1,0-0.1,0-3.3c-2.6,1.9-5.7,3.1-9.1,3.1
				c-8.4,0-15.1-6.8-15.1-15.1c0-8.4,6.7-15.1,15.1-15.1c8.3,0,15.1,6.7,15.1,15.1C415.8,49.4,415.8,49.4,415.8,64.5z M409.9,49.4
				c0-5-4.1-9.1-9.1-9.1c-5,0-9.1,4.1-9.1,9.1c0,5,4.1,9.1,9.1,9.1C405.7,58.6,409.9,54.4,409.9,49.4z"/>
			<path class="st11" d="M440.8,55.6c0,1.7-1.3,9-10,9c-4.2,0-9.1-1.9-10.8-6.1c-0.1-0.2-0.1-0.5-0.1-0.8c0-1.5,1.4-2.9,3.1-2.9
				c0.8,0,1.7,0.4,2.3,1.1c1.4,1.9,2.8,2.7,5.4,2.8c3.8,0,4.1-2.6,4.2-3.1c0-2-2.1-2.9-5-3.2c-3.7-0.4-10-2.4-10-9
				c0-5.8,4.9-9.2,10.2-9.2c2,0,4,0.5,5.8,1.4c0.6,0.3,5,2.3,5,6c-0.1,1.5-1.4,2.9-3.1,2.9c-1.4,0-2-1-2.8-2c-0.8-1.7-3.4-2.2-5-2.2
				c-2.2,0-4.1,1.3-4.1,3.3c0,4.3,6.5,1.5,11.5,5.3C439.4,50.5,440.8,53.1,440.8,55.6z"/>
			<path class="st11" d="M471.1,47.6v13.9c0,1.7-1.4,3-3,3s-2.9-1.3-2.9-3V47.6c0-4-3.3-7.3-7.3-7.3c-4,0-7.3,3.2-7.3,7.3v13.9
				c0,1.7-1.3,3-3,3c-1.6,0-2.9-1.3-2.9-3V22.4c0-1.6,1.3-2.9,2.9-2.9c1.7,0,3,1.3,3,2.9v14.1c2.1-1.4,4.6-2.2,7.3-2.2
				C465.2,34.4,471.1,40.3,471.1,47.6z"/>
			<path class="st11" d="M475.7,27.6c-0.5-0.5-0.9-1.3-0.9-2.1c0-0.8,0.4-1.6,0.9-2.1c0.5-0.5,1.3-0.9,2.1-0.9
				c0.8,0,1.6,0.4,2.1,0.9c0.5,0.5,0.8,1.3,0.8,2.1c0,0.8-0.3,1.6-0.8,2.1c-0.5,0.5-1.3,0.8-2.1,0.8C477,28.4,476.2,28.1,475.7,27.6
				z M474.8,61.6V37.4c0-1.6,1.3-2.9,3-2.9c1.6,0,2.9,1.3,2.9,2.9v24.2c0,1.7-1.3,3-2.9,3C476.1,64.6,474.8,63.3,474.8,61.6z"/>
			<path class="st11" d="M514.5,49.4c0,1.6-1.3,2.9-3,2.9h-20.7c1.3,3.6,4.6,6.2,8.7,6.2c1.4,0,3.8-0.1,6.7-2c1.4-0.9,3.2-0.1,4,1.4
				c0.7,1.5-0.1,3.1-1.4,4c-4,2.6-7,2.6-9.3,2.6c-8.4,0-15.1-6.8-15.1-15.1c0-8.4,6.7-15.1,15.1-15.1
				C506.7,34.4,514.5,39.6,514.5,49.4z M490.8,46.4h17.4c-1.3-4.2-5.1-6.1-8.7-6.1C495.4,40.3,492.1,42.9,490.8,46.4z"/>
			<path class="st11" d="M518.2,61.6V22.5c0-1.6,1.3-2.9,3-2.9c1.6,0,2.9,1.3,2.9,2.9v39.1c0,1.7-1.3,3-2.9,3
				C519.5,64.6,518.2,63.3,518.2,61.6z"/>
			<path class="st11" d="M551.9,37.3v-15c0-1.6,1.3-2.9,2.9-2.9c1.7,0,3,1.3,3,2.9v26.9v0.1c0,8.3-6.8,15.1-15.1,15.1
				c-8.4,0-15.1-6.8-15.1-15.1c0-8.4,6.7-15.1,15.1-15.1C546.2,34.2,549.3,35.4,551.9,37.3z M551.9,49.3L551.9,49.3
				c0-5-4.1-9.1-9.1-9.1c-5,0-9.1,4.1-9.1,9.1c0,5,4.1,9.1,9.1,9.1C547.8,58.5,551.9,54.4,551.9,49.3z"/>
		</g>
	</g>
	<path class="st12" d="M243.3,32.8c-1.9,2.4-1.4,5.9,1,7.7l25.9,19.8c0.2,0.2,0.5,0.3,0.7,0.4c-5.8,13.2-25.6,22-25.6,22
		s-27.2-12-27.2-29.1v-5.3l18.9,14.4c1,0.8,2.2,1.1,3.3,1.1c1.7,0,3.3-0.7,4.4-2.2c1.9-2.4,1.4-5.9-1-7.7l-25.6-19.6
		c0-6.2,0-9.9,0-9.9s17,2.4,27.2-8.3c10.2,10.7,27.2,8.3,27.2,8.3s0,9.5,0,23.6L251,31.8c-1-0.8-2.2-1.1-3.4-1.1
		C246,30.6,244.3,31.4,243.3,32.8z"/>
</g>
</svg>
