<?xml version="1.0" encoding="utf-8"?>
<!-- Generator: Adobe Illustrator 21.1.0, SVG Export Plug-In . SVG Version: 6.00 Build 0)  -->
<svg xmlns:xlink="http://www.w3.org/1999/xlink" version="1.1" id="Layer_1" xmlns="http://www.w3.org/2000/svg" x="0px" y="0px"
	 viewBox="0 0 361 76.9" style="enable-background:new 0 0 361 76.9;" xml:space="preserve">
<style type="text/css">
	.st0{fill:#FFFFFF;}
	.st1{fill:#F03795;}
</style>
<g>
	<g>
		<g>
			<path class="st0" d="M103.5,41.4c0,1.7-0.9,5.6-3.9,8.6c-1.7,1.7-4.9,3.8-9.9,3.8c-0.1,0-0.3,0-0.4-0.1
				c-4.1-0.1-7.5-1.1-10.3-3.1c-2.3-1.7-3.5-3.5-4.1-4.5c-0.3-0.5-0.5-1.1-0.5-1.7c0-1.8,1.4-3.1,3.1-3.1c1.3,0,2.4,0.8,2.8,1.9
				c0.3,0.4,0.9,1.4,2.3,2.4c1.8,1.2,4,1.8,6.7,1.9c7.5,0.1,7.8-6.1,7.8-6.1c0-1.4-1-3.2-2.4-4.3c-1.6-1.3-3.9-1.6-6.4-1.9
				c-3.4-0.4-7.3-0.9-10.5-4.1c-3-3.1-4.1-7.4-2.8-11.6c1.3-4.4,5.1-7.8,9.7-8.7c1.1-0.3,2.4-0.4,3.8-0.4c4.3,0.1,8,1.3,10.8,3.5
				c2.3,1.8,3.4,3.8,3.8,4.6c0.3,0.4,0.4,0.9,0.4,1.4c0,1.7-1.4,3.1-3.1,3.1c-1.3,0-2.4-0.7-2.9-1.9h-0.1c0-0.1-0.4-1.1-1.8-2.3
				c-1.3-1-3.6-2.2-7.2-2.3c-0.9-0.1-1.7,0-2.4,0.2c-2.4,0.5-4.4,2.3-5.1,4.6c-0.4,1.1-0.6,3.3,1.4,5.4c1.6,1.6,3.6,1.9,6.8,2.3
				c3,0.4,6.5,0.8,9.5,3.1C101.7,34.5,103.5,38.1,103.5,41.4z"/>
			<path class="st0" d="M139.2,38.5v12.3c0,1.8-1.3,3.1-3.1,3.1c-1.3,0-3-1.3-3-3.1c-2.7,2.3-5.7,3.1-9.3,3.1
				c-8.8,0-15.9-6.6-15.9-15.4c0-8.8,7-15.9,15.9-15.9C132.6,22.7,139.2,29.7,139.2,38.5z M133,38.5c0-5.3-4-9.7-9.3-9.7
				c-5.3,0-9.7,4.5-9.7,9.7c0,5.3,4.5,9.3,9.7,9.3C129,47.8,133,43.8,133,38.5z"/>
			<path class="st0" d="M174.4,38.3v12.6c0,1.8-1.4,3.1-3.1,3.1c-1.7,0-3.1-1.4-3.1-3.1V38.3c0-5.3-4.3-9.5-9.5-9.5
				c-5.3,0-9.5,4.3-9.5,9.5v12.6c0,1.8-1.4,3.1-3.1,3.1c-1.7,0-3.1-1.4-3.1-3.1V38.3c0-8.7,7.1-15.7,15.7-15.7
				C167.3,22.5,174.4,29.6,174.4,38.3z"/>
			<path class="st0" d="M209.6,54c0,8.7-7.1,15.7-15.7,15.7c-6.1,0-11.5-3.4-14.2-8.8c-0.8-1.6-0.1-3.4,1.4-4.1
				c1.5-0.8,3.4-0.1,4.1,1.4c1.6,3.3,4.9,5.4,8.6,5.4c5.2,0,9.4-4.2,9.5-9.3c0-0.1,0-0.1,0-3.5c-2.7,2-6,3.3-9.5,3.3
				c-8.7,0-15.7-7.1-15.7-15.7c0-8.7,7-15.7,15.7-15.7c8.7,0,15.7,7,15.7,15.7C209.6,38.3,209.6,38.3,209.6,54z M203.4,38.3
				c0-5.3-4.3-9.5-9.5-9.5c-5.3,0-9.5,4.3-9.5,9.5c0,5.2,4.3,9.5,9.5,9.5C199.1,47.8,203.4,43.5,203.4,38.3z"/>
			<path class="st0" d="M235.6,44.7c0,1.8-1.3,9.4-10.5,9.4c-4.4,0-9.5-1.9-11.2-6.3c-0.1-0.3-0.1-0.6-0.1-0.9
				c0-1.6,1.4-3.1,3.2-3.1c0.9,0,1.8,0.4,2.4,1.2c1.4,2,2.9,2.8,5.6,2.9c4,0,4.3-2.8,4.4-3.3c0-2.1-2.2-3-5.2-3.3
				c-3.8-0.4-10.4-2.5-10.4-9.4c0-6,5.1-9.6,10.6-9.6c2.1,0,4.1,0.5,6,1.4c0.6,0.3,5.2,2.4,5.2,6.2c-0.1,1.6-1.5,3-3.2,3
				c-1.5,0-2.1-1-2.9-2.1c-0.9-1.8-3.5-2.3-5.3-2.3c-2.3,0-4.3,1.3-4.3,3.4c0,4.5,6.8,1.6,12,5.6C234.2,39.4,235.6,42.1,235.6,44.7z
				"/>
			<path class="st0" d="M267.3,36.3v14.6c0,1.8-1.4,3.1-3.1,3.1s-3.1-1.4-3.1-3.1V36.3c0-4.2-3.4-7.6-7.7-7.6
				c-4.2,0-7.6,3.4-7.6,7.6v14.6c0,1.8-1.4,3.1-3.1,3.1c-1.7,0-3.1-1.4-3.1-3.1V10c0-1.7,1.4-3.1,3.1-3.1c1.8,0,3.1,1.4,3.1,3.1
				v14.7c2.2-1.4,4.8-2.3,7.6-2.3C261.1,22.5,267.3,28.7,267.3,36.3z"/>
			<path class="st0" d="M272.1,15.4c-0.6-0.6-0.9-1.4-0.9-2.2c0-0.8,0.4-1.6,0.9-2.2c0.6-0.6,1.4-0.9,2.2-0.9c0.8,0,1.6,0.4,2.2,0.9
				c0.6,0.6,0.9,1.4,0.9,2.2c0,0.8-0.3,1.6-0.9,2.2c-0.6,0.6-1.4,0.9-2.2,0.9C273.5,16.3,272.6,16,272.1,15.4z M271.1,50.9V25.7
				c0-1.7,1.4-3.1,3.1-3.1c1.7,0,3.1,1.4,3.1,3.1v25.3c0,1.8-1.4,3.1-3.1,3.1C272.5,54.1,271.1,52.7,271.1,50.9z"/>
			<path class="st0" d="M312.6,38.3c0,1.7-1.4,3.1-3.1,3.1h-21.6c1.3,3.8,4.8,6.5,9,6.5c1.4,0,4-0.1,7-2.1c1.4-0.9,3.4-0.1,4.1,1.4
				c0.8,1.6-0.1,3.2-1.5,4.1c-4.1,2.8-7.3,2.7-9.7,2.7c-8.7,0-15.7-7.1-15.7-15.7c0-8.7,7-15.7,15.7-15.7
				C304.4,22.5,312.6,28,312.6,38.3z M287.8,35.1h18.1c-1.3-4.4-5.3-6.4-9.1-6.4C292.7,28.7,289.1,31.4,287.8,35.1z"/>
			<path class="st0" d="M316.4,50.9V10.1c0-1.7,1.4-3.1,3.1-3.1c1.7,0,3.1,1.4,3.1,3.1v40.8c0,1.8-1.4,3.1-3.1,3.1
				C317.8,54.1,316.4,52.7,316.4,50.9z"/>
			<path class="st0" d="M351.5,25.6V10c0-1.7,1.4-3.1,3.1-3.1c1.8,0,3.1,1.4,3.1,3.1v28.1v0.1c0,8.7-7.1,15.7-15.7,15.7
				c-8.7,0-15.7-7.1-15.7-15.7c0-8.7,7-15.7,15.7-15.7C345.6,22.4,348.9,23.6,351.5,25.6z M351.5,38.1L351.5,38.1
				c0-5.3-4.3-9.5-9.5-9.5c-5.3,0-9.5,4.3-9.5,9.5c0,5.2,4.3,9.5,9.5,9.5C347.3,47.7,351.5,43.4,351.5,38.1z"/>
		</g>
	</g>
	<path class="st1" d="M29.5,20.9c-1.9,2.5-1.4,6.2,1.1,8.1l27,20.7c0.2,0.2,0.5,0.3,0.7,0.5c-6,13.8-26.8,22.9-26.8,22.9
		S3.2,60.6,3.2,42.7v-5.5l19.7,15.1c1,0.8,2.3,1.2,3.5,1.2c1.7,0,3.4-0.8,4.6-2.3c1.9-2.5,1.5-6.1-1.1-8.1L3.2,22.7
		c0-6.5,0-10.4,0-10.4S21,14.8,31.6,3.6C42.3,14.8,60,12.3,60,12.3s0,9.9,0,24.7L37.6,19.8c-1-0.8-2.3-1.2-3.5-1.2
		C32.4,18.6,30.7,19.4,29.5,20.9z"/>
</g>
</svg>
